<mxfile host="app.diagrams.net" agent="Mozilla/5.0 (Windows NT 10.0; Win64; x64) AppleWebKit/537.36 (KHTML, like Gecko) Chrome/133.0.0.0 Safari/537.36" version="26.0.16" pages="7">
  <diagram name="1" id="ZIWuci1-MLWLM1YwznLo">
    <mxGraphModel grid="0" page="0" gridSize="10" guides="1" tooltips="1" connect="1" arrows="1" fold="1" pageScale="1" pageWidth="827" pageHeight="1169" math="0" shadow="0">
      <root>
        <mxCell id="0" />
        <mxCell id="1" parent="0" />
        <mxCell id="PG1iqaDZ0k0Db25SBnOL-6" value="&lt;i&gt;&amp;lt;&amp;lt;Interface&amp;gt;&amp;gt;&lt;/i&gt;&lt;br&gt;&lt;b&gt;IObservable&amp;lt;T&amp;gt;&lt;/b&gt;" style="swimlane;fontStyle=0;childLayout=stackLayout;horizontal=1;startSize=39;fillColor=none;horizontalStack=0;resizeParent=1;resizeParentMax=0;resizeLast=0;collapsible=1;marginBottom=0;whiteSpace=wrap;html=1;fontColor=#000000;labelBackgroundColor=#FFFFFF;" parent="1" vertex="1">
          <mxGeometry x="130" y="145" width="339" height="118" as="geometry" />
        </mxCell>
        <mxCell id="PG1iqaDZ0k0Db25SBnOL-7" value="&lt;font style=&quot;color: rgb(0, 0, 0); background-color: rgb(255, 255, 255);&quot;&gt;+&amp;nbsp;&lt;span style=&quot;font-size: 14px; white-space: pre;&quot;&gt;registerObserver&lt;/span&gt;&lt;span style=&quot;font-size: 14px; white-space: pre;&quot;&gt;(&lt;/span&gt;&lt;span style=&quot;font-size: 14px; white-space: pre;&quot;&gt;observer&lt;/span&gt;&lt;span style=&quot;font-size: 14px; white-space: pre;&quot;&gt;:&lt;/span&gt;&lt;span style=&quot;font-size: 14px; white-space: pre;&quot;&gt; &lt;/span&gt;&lt;span style=&quot;font-size: 14px; white-space: pre;&quot;&gt;IObserver&lt;/span&gt;&lt;span style=&quot;font-size: 14px; white-space: pre;&quot;&gt;&amp;lt;&lt;/span&gt;&lt;span style=&quot;font-size: 14px; white-space: pre;&quot;&gt;T&lt;/span&gt;&lt;span style=&quot;font-size: 14px; white-space: pre;&quot;&gt;&amp;gt;)&lt;/span&gt;&lt;span style=&quot;font-size: 14px; white-space: pre;&quot;&gt;:&lt;/span&gt;&lt;span style=&quot;font-size: 14px; white-space: pre;&quot;&gt; &lt;/span&gt;&lt;span style=&quot;font-size: 14px; white-space: pre;&quot;&gt;void&lt;/span&gt;&lt;/font&gt;" style="text;strokeColor=none;fillColor=none;align=left;verticalAlign=top;spacingLeft=4;spacingRight=4;overflow=hidden;rotatable=0;points=[[0,0.5],[1,0.5]];portConstraint=eastwest;whiteSpace=wrap;html=1;fontFamily=Helvetica;" parent="PG1iqaDZ0k0Db25SBnOL-6" vertex="1">
          <mxGeometry y="39" width="339" height="26" as="geometry" />
        </mxCell>
        <mxCell id="PG1iqaDZ0k0Db25SBnOL-8" value="+&amp;nbsp;&lt;span style=&quot;font-size: 14px; white-space: pre;&quot;&gt;removeObserver&lt;/span&gt;&lt;span style=&quot;font-size: 14px; white-space: pre;&quot;&gt;(&lt;/span&gt;&lt;span style=&quot;font-size: 14px; white-space: pre;&quot;&gt;observer&lt;/span&gt;&lt;span style=&quot;font-size: 14px; white-space: pre;&quot;&gt;:&lt;/span&gt;&lt;span style=&quot;font-size: 14px; white-space: pre;&quot;&gt; &lt;/span&gt;&lt;span style=&quot;font-size: 14px; white-space: pre;&quot;&gt;IObserver&lt;/span&gt;&lt;span style=&quot;font-size: 14px; white-space: pre;&quot;&gt;&amp;lt;&lt;/span&gt;&lt;span style=&quot;font-size: 14px; white-space: pre;&quot;&gt;T&lt;/span&gt;&lt;span style=&quot;font-size: 14px; white-space: pre;&quot;&gt;&amp;gt;)&lt;/span&gt;&lt;span style=&quot;font-size: 14px; white-space: pre;&quot;&gt;:&lt;/span&gt;&lt;span style=&quot;font-size: 14px; white-space: pre;&quot;&gt; &lt;/span&gt;&lt;span style=&quot;font-size: 14px; white-space: pre;&quot;&gt;void&lt;/span&gt;" style="text;strokeColor=none;fillColor=none;align=left;verticalAlign=top;spacingLeft=4;spacingRight=4;overflow=hidden;rotatable=0;points=[[0,0.5],[1,0.5]];portConstraint=eastwest;whiteSpace=wrap;html=1;fontColor=#000000;labelBackgroundColor=#FFFFFF;fontFamily=Helvetica;" parent="PG1iqaDZ0k0Db25SBnOL-6" vertex="1">
          <mxGeometry y="65" width="339" height="26" as="geometry" />
        </mxCell>
        <mxCell id="PG1iqaDZ0k0Db25SBnOL-9" value="+&amp;nbsp;&lt;span style=&quot;font-size: 14px; white-space: pre;&quot;&gt;notifyObservers&lt;/span&gt;&lt;span style=&quot;font-size: 14px; white-space: pre;&quot;&gt;()&lt;/span&gt;&lt;span style=&quot;font-size: 14px; white-space: pre;&quot;&gt;:&lt;/span&gt;&lt;span style=&quot;font-size: 14px; white-space: pre;&quot;&gt; &lt;/span&gt;&lt;span style=&quot;font-size: 14px; white-space: pre;&quot;&gt;void&lt;/span&gt;" style="text;strokeColor=none;fillColor=none;align=left;verticalAlign=top;spacingLeft=4;spacingRight=4;overflow=hidden;rotatable=0;points=[[0,0.5],[1,0.5]];portConstraint=eastwest;whiteSpace=wrap;html=1;fontColor=#000000;labelBackgroundColor=#FFFFFF;fontFamily=Helvetica;" parent="PG1iqaDZ0k0Db25SBnOL-6" vertex="1">
          <mxGeometry y="91" width="339" height="27" as="geometry" />
        </mxCell>
        <mxCell id="PG1iqaDZ0k0Db25SBnOL-10" value="Observable&amp;lt;T&amp;gt;" style="swimlane;fontStyle=0;childLayout=stackLayout;horizontal=1;startSize=26;fillColor=none;horizontalStack=0;resizeParent=1;resizeParentMax=0;resizeLast=0;collapsible=1;marginBottom=0;whiteSpace=wrap;html=1;" parent="1" vertex="1">
          <mxGeometry x="130" y="342" width="341" height="36" as="geometry" />
        </mxCell>
        <mxCell id="PG1iqaDZ0k0Db25SBnOL-14" value="" style="endArrow=block;dashed=1;endFill=0;endSize=12;html=1;rounded=0;fontSize=12;curved=1;" parent="1" source="PG1iqaDZ0k0Db25SBnOL-10" target="PG1iqaDZ0k0Db25SBnOL-6" edge="1">
          <mxGeometry width="160" relative="1" as="geometry">
            <mxPoint x="283" y="303" as="sourcePoint" />
            <mxPoint x="443" y="303" as="targetPoint" />
          </mxGeometry>
        </mxCell>
        <mxCell id="PG1iqaDZ0k0Db25SBnOL-15" value="WeatherData" style="swimlane;fontStyle=0;childLayout=stackLayout;horizontal=1;startSize=26;fillColor=none;horizontalStack=0;resizeParent=1;resizeParentMax=0;resizeLast=0;collapsible=1;marginBottom=0;whiteSpace=wrap;html=1;" parent="1" vertex="1">
          <mxGeometry x="130" y="465" width="342" height="36" as="geometry" />
        </mxCell>
        <mxCell id="PG1iqaDZ0k0Db25SBnOL-19" value="Extends" style="endArrow=block;endSize=16;endFill=0;html=1;rounded=0;fontSize=12;curved=1;exitX=0.5;exitY=0;exitDx=0;exitDy=0;" parent="1" source="PG1iqaDZ0k0Db25SBnOL-15" target="PG1iqaDZ0k0Db25SBnOL-10" edge="1">
          <mxGeometry width="160" relative="1" as="geometry">
            <mxPoint x="397" y="269" as="sourcePoint" />
            <mxPoint x="557" y="269" as="targetPoint" />
          </mxGeometry>
        </mxCell>
        <mxCell id="FAQ3iJk6AAewFeo3D4vk-1" value="&lt;i&gt;&amp;lt;&amp;lt;Interface&amp;gt;&amp;gt;&lt;/i&gt;&lt;br&gt;&lt;b&gt;IObserver&amp;lt;T&amp;gt;&lt;/b&gt;" style="swimlane;fontStyle=0;childLayout=stackLayout;horizontal=1;startSize=38;fillColor=none;horizontalStack=0;resizeParent=1;resizeParentMax=0;resizeLast=0;collapsible=1;marginBottom=0;whiteSpace=wrap;html=1;" vertex="1" parent="1">
          <mxGeometry x="686" y="172" width="261" height="64" as="geometry" />
        </mxCell>
        <mxCell id="FAQ3iJk6AAewFeo3D4vk-5" value="&lt;font style=&quot;color: rgb(0, 0, 0); background-color: rgb(255, 255, 255);&quot;&gt;+&amp;nbsp;&lt;span style=&quot;font-size: 14px; white-space: pre;&quot;&gt;update&lt;/span&gt;&lt;span style=&quot;font-size: 14px; white-space: pre;&quot;&gt;(&lt;/span&gt;&lt;span style=&quot;font-size: 14px; white-space: pre;&quot;&gt;data&lt;/span&gt;&lt;span style=&quot;font-size: 14px; white-space: pre;&quot;&gt;:&lt;/span&gt;&lt;span style=&quot;font-size: 14px; white-space: pre;&quot;&gt; &lt;/span&gt;&lt;span style=&quot;font-size: 14px; white-space: pre;&quot;&gt;T&lt;/span&gt;&lt;span style=&quot;font-size: 14px; white-space: pre;&quot;&gt;)&lt;/span&gt;&lt;span style=&quot;font-size: 14px; white-space: pre;&quot;&gt;:&lt;/span&gt;&lt;span style=&quot;font-size: 14px; white-space: pre;&quot;&gt; &lt;/span&gt;&lt;span style=&quot;font-size: 14px; white-space: pre;&quot;&gt;void&lt;/span&gt;&lt;/font&gt;" style="text;strokeColor=none;fillColor=none;align=left;verticalAlign=top;spacingLeft=4;spacingRight=4;overflow=hidden;rotatable=0;points=[[0,0.5],[1,0.5]];portConstraint=eastwest;whiteSpace=wrap;html=1;fontFamily=Helvetica;" vertex="1" parent="FAQ3iJk6AAewFeo3D4vk-1">
          <mxGeometry y="38" width="261" height="26" as="geometry" />
        </mxCell>
        <mxCell id="FAQ3iJk6AAewFeo3D4vk-8" value="Display" style="swimlane;fontStyle=0;childLayout=stackLayout;horizontal=1;startSize=26;fillColor=none;horizontalStack=0;resizeParent=1;resizeParentMax=0;resizeLast=0;collapsible=1;marginBottom=0;whiteSpace=wrap;html=1;" vertex="1" parent="1">
          <mxGeometry x="531" y="342" width="261" height="52" as="geometry" />
        </mxCell>
        <mxCell id="FAQ3iJk6AAewFeo3D4vk-12" value="&lt;font style=&quot;color: rgb(0, 0, 0); background-color: rgb(255, 255, 255);&quot;&gt;+&amp;nbsp;&lt;span style=&quot;font-size: 14px; white-space: pre;&quot;&gt;update&lt;/span&gt;&lt;span style=&quot;font-size: 14px; white-space: pre;&quot;&gt;(&lt;/span&gt;&lt;span style=&quot;font-size: 14px; white-space: pre;&quot;&gt;data&lt;/span&gt;&lt;span style=&quot;font-size: 14px; white-space: pre;&quot;&gt;:&lt;/span&gt;&lt;span style=&quot;font-size: 14px; white-space: pre;&quot;&gt; WeatherInfo&lt;/span&gt;&lt;span style=&quot;font-size: 14px; white-space: pre;&quot;&gt;)&lt;/span&gt;&lt;span style=&quot;font-size: 14px; white-space: pre;&quot;&gt;:&lt;/span&gt;&lt;span style=&quot;font-size: 14px; white-space: pre;&quot;&gt; &lt;/span&gt;&lt;span style=&quot;font-size: 14px; white-space: pre;&quot;&gt;void&lt;/span&gt;&lt;/font&gt;" style="text;strokeColor=none;fillColor=none;align=left;verticalAlign=top;spacingLeft=4;spacingRight=4;overflow=hidden;rotatable=0;points=[[0,0.5],[1,0.5]];portConstraint=eastwest;whiteSpace=wrap;html=1;fontFamily=Helvetica;" vertex="1" parent="FAQ3iJk6AAewFeo3D4vk-8">
          <mxGeometry y="26" width="261" height="26" as="geometry" />
        </mxCell>
        <mxCell id="FAQ3iJk6AAewFeo3D4vk-13" value="" style="endArrow=block;dashed=1;endFill=0;endSize=12;html=1;rounded=0;fontSize=12;curved=1;" edge="1" parent="1" source="FAQ3iJk6AAewFeo3D4vk-8" target="FAQ3iJk6AAewFeo3D4vk-1">
          <mxGeometry width="160" relative="1" as="geometry">
            <mxPoint x="310" y="352" as="sourcePoint" />
            <mxPoint x="310" y="273" as="targetPoint" />
          </mxGeometry>
        </mxCell>
        <mxCell id="FAQ3iJk6AAewFeo3D4vk-14" value="&lt;div&gt;&lt;br&gt;&lt;/div&gt;&lt;div&gt;&lt;br&gt;&lt;/div&gt;" style="endArrow=open;html=1;endSize=12;startArrow=diamondThin;startSize=14;startFill=0;align=left;verticalAlign=bottom;rounded=0;fontSize=12;" edge="1" parent="1" source="PG1iqaDZ0k0Db25SBnOL-6" target="FAQ3iJk6AAewFeo3D4vk-1">
          <mxGeometry x="-1" y="3" relative="1" as="geometry">
            <mxPoint x="356" y="272" as="sourcePoint" />
            <mxPoint x="516" y="272" as="targetPoint" />
          </mxGeometry>
        </mxCell>
        <mxCell id="FAQ3iJk6AAewFeo3D4vk-15" value="StatisticDisplay" style="swimlane;fontStyle=0;childLayout=stackLayout;horizontal=1;startSize=26;fillColor=none;horizontalStack=0;resizeParent=1;resizeParentMax=0;resizeLast=0;collapsible=1;marginBottom=0;whiteSpace=wrap;html=1;" vertex="1" parent="1">
          <mxGeometry x="821" y="342" width="261" height="52" as="geometry" />
        </mxCell>
        <mxCell id="FAQ3iJk6AAewFeo3D4vk-16" value="&lt;font style=&quot;color: rgb(0, 0, 0); background-color: rgb(255, 255, 255);&quot;&gt;+&amp;nbsp;&lt;span style=&quot;font-size: 14px; white-space: pre;&quot;&gt;update&lt;/span&gt;&lt;span style=&quot;font-size: 14px; white-space: pre;&quot;&gt;(&lt;/span&gt;&lt;span style=&quot;font-size: 14px; white-space: pre;&quot;&gt;data&lt;/span&gt;&lt;span style=&quot;font-size: 14px; white-space: pre;&quot;&gt;:&lt;/span&gt;&lt;span style=&quot;font-size: 14px; white-space: pre;&quot;&gt; WeatherInfo&lt;/span&gt;&lt;span style=&quot;font-size: 14px; white-space: pre;&quot;&gt;)&lt;/span&gt;&lt;span style=&quot;font-size: 14px; white-space: pre;&quot;&gt;:&lt;/span&gt;&lt;span style=&quot;font-size: 14px; white-space: pre;&quot;&gt; &lt;/span&gt;&lt;span style=&quot;font-size: 14px; white-space: pre;&quot;&gt;void&lt;/span&gt;&lt;/font&gt;" style="text;strokeColor=none;fillColor=none;align=left;verticalAlign=top;spacingLeft=4;spacingRight=4;overflow=hidden;rotatable=0;points=[[0,0.5],[1,0.5]];portConstraint=eastwest;whiteSpace=wrap;html=1;fontFamily=Helvetica;" vertex="1" parent="FAQ3iJk6AAewFeo3D4vk-15">
          <mxGeometry y="26" width="261" height="26" as="geometry" />
        </mxCell>
        <mxCell id="FAQ3iJk6AAewFeo3D4vk-17" value="" style="endArrow=block;dashed=1;endFill=0;endSize=12;html=1;rounded=0;fontSize=12;curved=1;" edge="1" parent="1" source="FAQ3iJk6AAewFeo3D4vk-15" target="FAQ3iJk6AAewFeo3D4vk-1">
          <mxGeometry width="160" relative="1" as="geometry">
            <mxPoint x="752" y="357" as="sourcePoint" />
            <mxPoint x="751" y="246" as="targetPoint" />
          </mxGeometry>
        </mxCell>
      </root>
    </mxGraphModel>
  </diagram>
  <diagram id="p4b2hHUSK-hh5Bd71wQN" name="2">
    <mxGraphModel dx="1687" dy="868" grid="0" gridSize="10" guides="1" tooltips="1" connect="1" arrows="1" fold="1" page="0" pageScale="1" pageWidth="827" pageHeight="1169" math="0" shadow="0">
      <root>
        <mxCell id="0" />
        <mxCell id="1" parent="0" />
        <mxCell id="mIYy1i6eIo9uMiKJqfey-1" value="&lt;i&gt;&amp;lt;&amp;lt;Interface&amp;gt;&amp;gt;&lt;/i&gt;&lt;br&gt;&lt;b&gt;IObservable&amp;lt;T&amp;gt;&lt;/b&gt;" style="swimlane;fontStyle=0;childLayout=stackLayout;horizontal=1;startSize=39;fillColor=none;horizontalStack=0;resizeParent=1;resizeParentMax=0;resizeLast=0;collapsible=1;marginBottom=0;whiteSpace=wrap;html=1;fontColor=#000000;labelBackgroundColor=#FFFFFF;" vertex="1" parent="1">
          <mxGeometry x="130" y="145" width="339" height="118" as="geometry" />
        </mxCell>
        <mxCell id="mIYy1i6eIo9uMiKJqfey-2" value="&lt;font style=&quot;color: rgb(0, 0, 0); background-color: rgb(255, 255, 255);&quot;&gt;+&amp;nbsp;&lt;span style=&quot;font-size: 14px; white-space: pre;&quot;&gt;registerObserver&lt;/span&gt;&lt;span style=&quot;font-size: 14px; white-space: pre;&quot;&gt;(&lt;/span&gt;&lt;span style=&quot;font-size: 14px; white-space: pre;&quot;&gt;observer&lt;/span&gt;&lt;span style=&quot;font-size: 14px; white-space: pre;&quot;&gt;:&lt;/span&gt;&lt;span style=&quot;font-size: 14px; white-space: pre;&quot;&gt; &lt;/span&gt;&lt;span style=&quot;font-size: 14px; white-space: pre;&quot;&gt;IObserver&lt;/span&gt;&lt;span style=&quot;font-size: 14px; white-space: pre;&quot;&gt;&amp;lt;&lt;/span&gt;&lt;span style=&quot;font-size: 14px; white-space: pre;&quot;&gt;T&lt;/span&gt;&lt;span style=&quot;font-size: 14px; white-space: pre;&quot;&gt;&amp;gt;)&lt;/span&gt;&lt;span style=&quot;font-size: 14px; white-space: pre;&quot;&gt;:&lt;/span&gt;&lt;span style=&quot;font-size: 14px; white-space: pre;&quot;&gt; &lt;/span&gt;&lt;span style=&quot;font-size: 14px; white-space: pre;&quot;&gt;void&lt;/span&gt;&lt;/font&gt;" style="text;strokeColor=none;fillColor=none;align=left;verticalAlign=top;spacingLeft=4;spacingRight=4;overflow=hidden;rotatable=0;points=[[0,0.5],[1,0.5]];portConstraint=eastwest;whiteSpace=wrap;html=1;fontFamily=Helvetica;" vertex="1" parent="mIYy1i6eIo9uMiKJqfey-1">
          <mxGeometry y="39" width="339" height="26" as="geometry" />
        </mxCell>
        <mxCell id="mIYy1i6eIo9uMiKJqfey-3" value="+&amp;nbsp;&lt;span style=&quot;font-size: 14px; white-space: pre;&quot;&gt;removeObserver&lt;/span&gt;&lt;span style=&quot;font-size: 14px; white-space: pre;&quot;&gt;(&lt;/span&gt;&lt;span style=&quot;font-size: 14px; white-space: pre;&quot;&gt;observer&lt;/span&gt;&lt;span style=&quot;font-size: 14px; white-space: pre;&quot;&gt;:&lt;/span&gt;&lt;span style=&quot;font-size: 14px; white-space: pre;&quot;&gt; &lt;/span&gt;&lt;span style=&quot;font-size: 14px; white-space: pre;&quot;&gt;IObserver&lt;/span&gt;&lt;span style=&quot;font-size: 14px; white-space: pre;&quot;&gt;&amp;lt;&lt;/span&gt;&lt;span style=&quot;font-size: 14px; white-space: pre;&quot;&gt;T&lt;/span&gt;&lt;span style=&quot;font-size: 14px; white-space: pre;&quot;&gt;&amp;gt;)&lt;/span&gt;&lt;span style=&quot;font-size: 14px; white-space: pre;&quot;&gt;:&lt;/span&gt;&lt;span style=&quot;font-size: 14px; white-space: pre;&quot;&gt; &lt;/span&gt;&lt;span style=&quot;font-size: 14px; white-space: pre;&quot;&gt;void&lt;/span&gt;" style="text;strokeColor=none;fillColor=none;align=left;verticalAlign=top;spacingLeft=4;spacingRight=4;overflow=hidden;rotatable=0;points=[[0,0.5],[1,0.5]];portConstraint=eastwest;whiteSpace=wrap;html=1;fontColor=#000000;labelBackgroundColor=#FFFFFF;fontFamily=Helvetica;" vertex="1" parent="mIYy1i6eIo9uMiKJqfey-1">
          <mxGeometry y="65" width="339" height="26" as="geometry" />
        </mxCell>
        <mxCell id="mIYy1i6eIo9uMiKJqfey-4" value="+&amp;nbsp;&lt;span style=&quot;font-size: 14px; white-space: pre;&quot;&gt;notifyObservers&lt;/span&gt;&lt;span style=&quot;font-size: 14px; white-space: pre;&quot;&gt;()&lt;/span&gt;&lt;span style=&quot;font-size: 14px; white-space: pre;&quot;&gt;:&lt;/span&gt;&lt;span style=&quot;font-size: 14px; white-space: pre;&quot;&gt; &lt;/span&gt;&lt;span style=&quot;font-size: 14px; white-space: pre;&quot;&gt;void&lt;/span&gt;" style="text;strokeColor=none;fillColor=none;align=left;verticalAlign=top;spacingLeft=4;spacingRight=4;overflow=hidden;rotatable=0;points=[[0,0.5],[1,0.5]];portConstraint=eastwest;whiteSpace=wrap;html=1;fontColor=#000000;labelBackgroundColor=#FFFFFF;fontFamily=Helvetica;" vertex="1" parent="mIYy1i6eIo9uMiKJqfey-1">
          <mxGeometry y="91" width="339" height="27" as="geometry" />
        </mxCell>
        <mxCell id="mIYy1i6eIo9uMiKJqfey-5" value="Observable&amp;lt;T&amp;gt;" style="swimlane;fontStyle=0;childLayout=stackLayout;horizontal=1;startSize=26;fillColor=none;horizontalStack=0;resizeParent=1;resizeParentMax=0;resizeLast=0;collapsible=1;marginBottom=0;whiteSpace=wrap;html=1;" vertex="1" parent="1">
          <mxGeometry x="130" y="342" width="341" height="36" as="geometry" />
        </mxCell>
        <mxCell id="mIYy1i6eIo9uMiKJqfey-6" value="" style="endArrow=block;dashed=1;endFill=0;endSize=12;html=1;rounded=0;fontSize=12;curved=1;" edge="1" parent="1" source="mIYy1i6eIo9uMiKJqfey-5" target="mIYy1i6eIo9uMiKJqfey-1">
          <mxGeometry width="160" relative="1" as="geometry">
            <mxPoint x="283" y="303" as="sourcePoint" />
            <mxPoint x="443" y="303" as="targetPoint" />
          </mxGeometry>
        </mxCell>
        <mxCell id="mIYy1i6eIo9uMiKJqfey-7" value="WeatherData" style="swimlane;fontStyle=0;childLayout=stackLayout;horizontal=1;startSize=26;fillColor=none;horizontalStack=0;resizeParent=1;resizeParentMax=0;resizeLast=0;collapsible=1;marginBottom=0;whiteSpace=wrap;html=1;" vertex="1" parent="1">
          <mxGeometry x="130" y="465" width="342" height="36" as="geometry" />
        </mxCell>
        <mxCell id="mIYy1i6eIo9uMiKJqfey-8" value="Extends" style="endArrow=block;endSize=16;endFill=0;html=1;rounded=0;fontSize=12;curved=1;exitX=0.5;exitY=0;exitDx=0;exitDy=0;" edge="1" parent="1" source="mIYy1i6eIo9uMiKJqfey-7" target="mIYy1i6eIo9uMiKJqfey-5">
          <mxGeometry width="160" relative="1" as="geometry">
            <mxPoint x="397" y="269" as="sourcePoint" />
            <mxPoint x="557" y="269" as="targetPoint" />
          </mxGeometry>
        </mxCell>
        <mxCell id="mIYy1i6eIo9uMiKJqfey-9" value="&lt;i&gt;&amp;lt;&amp;lt;Interface&amp;gt;&amp;gt;&lt;/i&gt;&lt;br&gt;&lt;b&gt;IObserver&amp;lt;T&amp;gt;&lt;/b&gt;" style="swimlane;fontStyle=0;childLayout=stackLayout;horizontal=1;startSize=38;fillColor=none;horizontalStack=0;resizeParent=1;resizeParentMax=0;resizeLast=0;collapsible=1;marginBottom=0;whiteSpace=wrap;html=1;" vertex="1" parent="1">
          <mxGeometry x="686" y="172" width="261" height="64" as="geometry" />
        </mxCell>
        <mxCell id="mIYy1i6eIo9uMiKJqfey-10" value="&lt;font style=&quot;color: rgb(0, 0, 0); background-color: rgb(255, 255, 255);&quot;&gt;+&amp;nbsp;&lt;span style=&quot;font-size: 14px; white-space: pre;&quot;&gt;update&lt;/span&gt;&lt;span style=&quot;font-size: 14px; white-space: pre;&quot;&gt;(&lt;/span&gt;&lt;span style=&quot;font-size: 14px; white-space: pre;&quot;&gt;data&lt;/span&gt;&lt;span style=&quot;font-size: 14px; white-space: pre;&quot;&gt;:&lt;/span&gt;&lt;span style=&quot;font-size: 14px; white-space: pre;&quot;&gt; &lt;/span&gt;&lt;span style=&quot;font-size: 14px; white-space: pre;&quot;&gt;T&lt;/span&gt;&lt;span style=&quot;font-size: 14px; white-space: pre;&quot;&gt;)&lt;/span&gt;&lt;span style=&quot;font-size: 14px; white-space: pre;&quot;&gt;:&lt;/span&gt;&lt;span style=&quot;font-size: 14px; white-space: pre;&quot;&gt; &lt;/span&gt;&lt;span style=&quot;font-size: 14px; white-space: pre;&quot;&gt;void&lt;/span&gt;&lt;/font&gt;" style="text;strokeColor=none;fillColor=none;align=left;verticalAlign=top;spacingLeft=4;spacingRight=4;overflow=hidden;rotatable=0;points=[[0,0.5],[1,0.5]];portConstraint=eastwest;whiteSpace=wrap;html=1;fontFamily=Helvetica;" vertex="1" parent="mIYy1i6eIo9uMiKJqfey-9">
          <mxGeometry y="38" width="261" height="26" as="geometry" />
        </mxCell>
        <mxCell id="mIYy1i6eIo9uMiKJqfey-11" value="Display" style="swimlane;fontStyle=0;childLayout=stackLayout;horizontal=1;startSize=26;fillColor=none;horizontalStack=0;resizeParent=1;resizeParentMax=0;resizeLast=0;collapsible=1;marginBottom=0;whiteSpace=wrap;html=1;" vertex="1" parent="1">
          <mxGeometry x="531" y="342" width="261" height="52" as="geometry" />
        </mxCell>
        <mxCell id="mIYy1i6eIo9uMiKJqfey-12" value="&lt;font style=&quot;color: rgb(0, 0, 0); background-color: rgb(255, 255, 255);&quot;&gt;+&amp;nbsp;&lt;span style=&quot;font-size: 14px; white-space: pre;&quot;&gt;update&lt;/span&gt;&lt;span style=&quot;font-size: 14px; white-space: pre;&quot;&gt;(&lt;/span&gt;&lt;span style=&quot;font-size: 14px; white-space: pre;&quot;&gt;data&lt;/span&gt;&lt;span style=&quot;font-size: 14px; white-space: pre;&quot;&gt;:&lt;/span&gt;&lt;span style=&quot;font-size: 14px; white-space: pre;&quot;&gt; WeatherInfo&lt;/span&gt;&lt;span style=&quot;font-size: 14px; white-space: pre;&quot;&gt;)&lt;/span&gt;&lt;span style=&quot;font-size: 14px; white-space: pre;&quot;&gt;:&lt;/span&gt;&lt;span style=&quot;font-size: 14px; white-space: pre;&quot;&gt; &lt;/span&gt;&lt;span style=&quot;font-size: 14px; white-space: pre;&quot;&gt;void&lt;/span&gt;&lt;/font&gt;" style="text;strokeColor=none;fillColor=none;align=left;verticalAlign=top;spacingLeft=4;spacingRight=4;overflow=hidden;rotatable=0;points=[[0,0.5],[1,0.5]];portConstraint=eastwest;whiteSpace=wrap;html=1;fontFamily=Helvetica;" vertex="1" parent="mIYy1i6eIo9uMiKJqfey-11">
          <mxGeometry y="26" width="261" height="26" as="geometry" />
        </mxCell>
        <mxCell id="mIYy1i6eIo9uMiKJqfey-13" value="" style="endArrow=block;dashed=1;endFill=0;endSize=12;html=1;rounded=0;fontSize=12;curved=1;" edge="1" parent="1" source="mIYy1i6eIo9uMiKJqfey-11" target="mIYy1i6eIo9uMiKJqfey-9">
          <mxGeometry width="160" relative="1" as="geometry">
            <mxPoint x="310" y="352" as="sourcePoint" />
            <mxPoint x="310" y="273" as="targetPoint" />
          </mxGeometry>
        </mxCell>
        <mxCell id="mIYy1i6eIo9uMiKJqfey-14" value="&lt;div&gt;&lt;br&gt;&lt;/div&gt;&lt;div&gt;&lt;br&gt;&lt;/div&gt;" style="endArrow=open;html=1;endSize=12;startArrow=diamondThin;startSize=14;startFill=0;align=left;verticalAlign=bottom;rounded=0;fontSize=12;" edge="1" parent="1" source="mIYy1i6eIo9uMiKJqfey-1" target="mIYy1i6eIo9uMiKJqfey-9">
          <mxGeometry x="-1" y="3" relative="1" as="geometry">
            <mxPoint x="356" y="272" as="sourcePoint" />
            <mxPoint x="516" y="272" as="targetPoint" />
          </mxGeometry>
        </mxCell>
        <mxCell id="mIYy1i6eIo9uMiKJqfey-15" value="StatisticDisplay" style="swimlane;fontStyle=0;childLayout=stackLayout;horizontal=1;startSize=26;fillColor=none;horizontalStack=0;resizeParent=1;resizeParentMax=0;resizeLast=0;collapsible=1;marginBottom=0;whiteSpace=wrap;html=1;" vertex="1" parent="1">
          <mxGeometry x="821" y="342" width="261" height="52" as="geometry" />
        </mxCell>
        <mxCell id="mIYy1i6eIo9uMiKJqfey-16" value="&lt;font style=&quot;color: rgb(0, 0, 0); background-color: rgb(255, 255, 255);&quot;&gt;+&amp;nbsp;&lt;span style=&quot;font-size: 14px; white-space: pre;&quot;&gt;update&lt;/span&gt;&lt;span style=&quot;font-size: 14px; white-space: pre;&quot;&gt;(&lt;/span&gt;&lt;span style=&quot;font-size: 14px; white-space: pre;&quot;&gt;data&lt;/span&gt;&lt;span style=&quot;font-size: 14px; white-space: pre;&quot;&gt;:&lt;/span&gt;&lt;span style=&quot;font-size: 14px; white-space: pre;&quot;&gt; WeatherInfo&lt;/span&gt;&lt;span style=&quot;font-size: 14px; white-space: pre;&quot;&gt;)&lt;/span&gt;&lt;span style=&quot;font-size: 14px; white-space: pre;&quot;&gt;:&lt;/span&gt;&lt;span style=&quot;font-size: 14px; white-space: pre;&quot;&gt; &lt;/span&gt;&lt;span style=&quot;font-size: 14px; white-space: pre;&quot;&gt;void&lt;/span&gt;&lt;/font&gt;" style="text;strokeColor=none;fillColor=none;align=left;verticalAlign=top;spacingLeft=4;spacingRight=4;overflow=hidden;rotatable=0;points=[[0,0.5],[1,0.5]];portConstraint=eastwest;whiteSpace=wrap;html=1;fontFamily=Helvetica;" vertex="1" parent="mIYy1i6eIo9uMiKJqfey-15">
          <mxGeometry y="26" width="261" height="26" as="geometry" />
        </mxCell>
        <mxCell id="mIYy1i6eIo9uMiKJqfey-17" value="" style="endArrow=block;dashed=1;endFill=0;endSize=12;html=1;rounded=0;fontSize=12;curved=1;" edge="1" parent="1" source="mIYy1i6eIo9uMiKJqfey-15" target="mIYy1i6eIo9uMiKJqfey-9">
          <mxGeometry width="160" relative="1" as="geometry">
            <mxPoint x="752" y="357" as="sourcePoint" />
            <mxPoint x="751" y="246" as="targetPoint" />
          </mxGeometry>
        </mxCell>
      </root>
    </mxGraphModel>
  </diagram>
  <diagram id="oZqJxLnEzGQkYhdpZg2j" name="3">
    <mxGraphModel grid="0" page="0" gridSize="10" guides="1" tooltips="1" connect="1" arrows="1" fold="1" pageScale="1" pageWidth="827" pageHeight="1169" math="0" shadow="0">
      <root>
        <mxCell id="0" />
        <mxCell id="1" parent="0" />
        <mxCell id="vzlApwDzg3TMWroNLnLx-1" value="&lt;i&gt;&amp;lt;&amp;lt;Interface&amp;gt;&amp;gt;&lt;/i&gt;&lt;br&gt;&lt;b&gt;IObservable&amp;lt;T&amp;gt;&lt;/b&gt;" style="swimlane;fontStyle=0;childLayout=stackLayout;horizontal=1;startSize=39;fillColor=none;horizontalStack=0;resizeParent=1;resizeParentMax=0;resizeLast=0;collapsible=1;marginBottom=0;whiteSpace=wrap;html=1;fontColor=#000000;labelBackgroundColor=#FFFFFF;" vertex="1" parent="1">
          <mxGeometry x="130" y="145" width="339" height="118" as="geometry" />
        </mxCell>
        <mxCell id="vzlApwDzg3TMWroNLnLx-2" value="&lt;font style=&quot;color: rgb(0, 0, 0); background-color: rgb(255, 255, 255);&quot;&gt;+&amp;nbsp;&lt;span style=&quot;font-size: 14px; white-space: pre;&quot;&gt;registerObserver&lt;/span&gt;&lt;span style=&quot;font-size: 14px; white-space: pre;&quot;&gt;(&lt;/span&gt;&lt;span style=&quot;font-size: 14px; white-space: pre;&quot;&gt;observer&lt;/span&gt;&lt;span style=&quot;font-size: 14px; white-space: pre;&quot;&gt;:&lt;/span&gt;&lt;span style=&quot;font-size: 14px; white-space: pre;&quot;&gt; &lt;/span&gt;&lt;span style=&quot;font-size: 14px; white-space: pre;&quot;&gt;IObserver&lt;/span&gt;&lt;span style=&quot;font-size: 14px; white-space: pre;&quot;&gt;&amp;lt;&lt;/span&gt;&lt;span style=&quot;font-size: 14px; white-space: pre;&quot;&gt;T&lt;/span&gt;&lt;span style=&quot;font-size: 14px; white-space: pre;&quot;&gt;&amp;gt;)&lt;/span&gt;&lt;span style=&quot;font-size: 14px; white-space: pre;&quot;&gt;:&lt;/span&gt;&lt;span style=&quot;font-size: 14px; white-space: pre;&quot;&gt; &lt;/span&gt;&lt;span style=&quot;font-size: 14px; white-space: pre;&quot;&gt;void&lt;/span&gt;&lt;/font&gt;" style="text;strokeColor=none;fillColor=none;align=left;verticalAlign=top;spacingLeft=4;spacingRight=4;overflow=hidden;rotatable=0;points=[[0,0.5],[1,0.5]];portConstraint=eastwest;whiteSpace=wrap;html=1;fontFamily=Helvetica;" vertex="1" parent="vzlApwDzg3TMWroNLnLx-1">
          <mxGeometry y="39" width="339" height="26" as="geometry" />
        </mxCell>
        <mxCell id="vzlApwDzg3TMWroNLnLx-3" value="+&amp;nbsp;&lt;span style=&quot;font-size: 14px; white-space: pre;&quot;&gt;removeObserver&lt;/span&gt;&lt;span style=&quot;font-size: 14px; white-space: pre;&quot;&gt;(&lt;/span&gt;&lt;span style=&quot;font-size: 14px; white-space: pre;&quot;&gt;observer&lt;/span&gt;&lt;span style=&quot;font-size: 14px; white-space: pre;&quot;&gt;:&lt;/span&gt;&lt;span style=&quot;font-size: 14px; white-space: pre;&quot;&gt; &lt;/span&gt;&lt;span style=&quot;font-size: 14px; white-space: pre;&quot;&gt;IObserver&lt;/span&gt;&lt;span style=&quot;font-size: 14px; white-space: pre;&quot;&gt;&amp;lt;&lt;/span&gt;&lt;span style=&quot;font-size: 14px; white-space: pre;&quot;&gt;T&lt;/span&gt;&lt;span style=&quot;font-size: 14px; white-space: pre;&quot;&gt;&amp;gt;)&lt;/span&gt;&lt;span style=&quot;font-size: 14px; white-space: pre;&quot;&gt;:&lt;/span&gt;&lt;span style=&quot;font-size: 14px; white-space: pre;&quot;&gt; &lt;/span&gt;&lt;span style=&quot;font-size: 14px; white-space: pre;&quot;&gt;void&lt;/span&gt;" style="text;strokeColor=none;fillColor=none;align=left;verticalAlign=top;spacingLeft=4;spacingRight=4;overflow=hidden;rotatable=0;points=[[0,0.5],[1,0.5]];portConstraint=eastwest;whiteSpace=wrap;html=1;fontColor=#000000;labelBackgroundColor=#FFFFFF;fontFamily=Helvetica;" vertex="1" parent="vzlApwDzg3TMWroNLnLx-1">
          <mxGeometry y="65" width="339" height="26" as="geometry" />
        </mxCell>
        <mxCell id="vzlApwDzg3TMWroNLnLx-4" value="+&amp;nbsp;&lt;span style=&quot;font-size: 14px; white-space: pre;&quot;&gt;notifyObservers&lt;/span&gt;&lt;span style=&quot;font-size: 14px; white-space: pre;&quot;&gt;()&lt;/span&gt;&lt;span style=&quot;font-size: 14px; white-space: pre;&quot;&gt;:&lt;/span&gt;&lt;span style=&quot;font-size: 14px; white-space: pre;&quot;&gt; &lt;/span&gt;&lt;span style=&quot;font-size: 14px; white-space: pre;&quot;&gt;void&lt;/span&gt;" style="text;strokeColor=none;fillColor=none;align=left;verticalAlign=top;spacingLeft=4;spacingRight=4;overflow=hidden;rotatable=0;points=[[0,0.5],[1,0.5]];portConstraint=eastwest;whiteSpace=wrap;html=1;fontColor=#000000;labelBackgroundColor=#FFFFFF;fontFamily=Helvetica;" vertex="1" parent="vzlApwDzg3TMWroNLnLx-1">
          <mxGeometry y="91" width="339" height="27" as="geometry" />
        </mxCell>
        <mxCell id="vzlApwDzg3TMWroNLnLx-5" value="Observable&amp;lt;T&amp;gt;" style="swimlane;fontStyle=0;childLayout=stackLayout;horizontal=1;startSize=26;fillColor=none;horizontalStack=0;resizeParent=1;resizeParentMax=0;resizeLast=0;collapsible=1;marginBottom=0;whiteSpace=wrap;html=1;" vertex="1" parent="1">
          <mxGeometry x="130" y="342" width="341" height="36" as="geometry" />
        </mxCell>
        <mxCell id="vzlApwDzg3TMWroNLnLx-6" value="" style="endArrow=block;dashed=1;endFill=0;endSize=12;html=1;rounded=0;fontSize=12;curved=1;" edge="1" parent="1" source="vzlApwDzg3TMWroNLnLx-5" target="vzlApwDzg3TMWroNLnLx-1">
          <mxGeometry width="160" relative="1" as="geometry">
            <mxPoint x="283" y="303" as="sourcePoint" />
            <mxPoint x="443" y="303" as="targetPoint" />
          </mxGeometry>
        </mxCell>
        <mxCell id="vzlApwDzg3TMWroNLnLx-7" value="WeatherData" style="swimlane;fontStyle=0;childLayout=stackLayout;horizontal=1;startSize=26;fillColor=none;horizontalStack=0;resizeParent=1;resizeParentMax=0;resizeLast=0;collapsible=1;marginBottom=0;whiteSpace=wrap;html=1;" vertex="1" parent="1">
          <mxGeometry x="130" y="465" width="342" height="36" as="geometry" />
        </mxCell>
        <mxCell id="vzlApwDzg3TMWroNLnLx-8" value="Extends" style="endArrow=block;endSize=16;endFill=0;html=1;rounded=0;fontSize=12;curved=1;exitX=0.5;exitY=0;exitDx=0;exitDy=0;" edge="1" parent="1" source="vzlApwDzg3TMWroNLnLx-7" target="vzlApwDzg3TMWroNLnLx-5">
          <mxGeometry width="160" relative="1" as="geometry">
            <mxPoint x="397" y="269" as="sourcePoint" />
            <mxPoint x="557" y="269" as="targetPoint" />
          </mxGeometry>
        </mxCell>
        <mxCell id="vzlApwDzg3TMWroNLnLx-9" value="&lt;i&gt;&amp;lt;&amp;lt;Interface&amp;gt;&amp;gt;&lt;/i&gt;&lt;br&gt;&lt;b&gt;IObserver&amp;lt;T&amp;gt;&lt;/b&gt;" style="swimlane;fontStyle=0;childLayout=stackLayout;horizontal=1;startSize=38;fillColor=none;horizontalStack=0;resizeParent=1;resizeParentMax=0;resizeLast=0;collapsible=1;marginBottom=0;whiteSpace=wrap;html=1;" vertex="1" parent="1">
          <mxGeometry x="686" y="172" width="261" height="64" as="geometry" />
        </mxCell>
        <mxCell id="vzlApwDzg3TMWroNLnLx-10" value="&lt;font style=&quot;color: rgb(0, 0, 0); background-color: rgb(255, 255, 255);&quot;&gt;+&amp;nbsp;&lt;span style=&quot;font-size: 14px; white-space: pre;&quot;&gt;update&lt;/span&gt;&lt;span style=&quot;font-size: 14px; white-space: pre;&quot;&gt;(&lt;/span&gt;&lt;span style=&quot;font-size: 14px; white-space: pre;&quot;&gt;data&lt;/span&gt;&lt;span style=&quot;font-size: 14px; white-space: pre;&quot;&gt;:&lt;/span&gt;&lt;span style=&quot;font-size: 14px; white-space: pre;&quot;&gt; &lt;/span&gt;&lt;span style=&quot;font-size: 14px; white-space: pre;&quot;&gt;T&lt;/span&gt;&lt;span style=&quot;font-size: 14px; white-space: pre;&quot;&gt;)&lt;/span&gt;&lt;span style=&quot;font-size: 14px; white-space: pre;&quot;&gt;:&lt;/span&gt;&lt;span style=&quot;font-size: 14px; white-space: pre;&quot;&gt; &lt;/span&gt;&lt;span style=&quot;font-size: 14px; white-space: pre;&quot;&gt;void&lt;/span&gt;&lt;/font&gt;" style="text;strokeColor=none;fillColor=none;align=left;verticalAlign=top;spacingLeft=4;spacingRight=4;overflow=hidden;rotatable=0;points=[[0,0.5],[1,0.5]];portConstraint=eastwest;whiteSpace=wrap;html=1;fontFamily=Helvetica;" vertex="1" parent="vzlApwDzg3TMWroNLnLx-9">
          <mxGeometry y="38" width="261" height="26" as="geometry" />
        </mxCell>
        <mxCell id="vzlApwDzg3TMWroNLnLx-11" value="Display" style="swimlane;fontStyle=0;childLayout=stackLayout;horizontal=1;startSize=26;fillColor=none;horizontalStack=0;resizeParent=1;resizeParentMax=0;resizeLast=0;collapsible=1;marginBottom=0;whiteSpace=wrap;html=1;" vertex="1" parent="1">
          <mxGeometry x="531" y="342" width="261" height="52" as="geometry" />
        </mxCell>
        <mxCell id="vzlApwDzg3TMWroNLnLx-12" value="&lt;font style=&quot;color: rgb(0, 0, 0); background-color: rgb(255, 255, 255);&quot;&gt;+&amp;nbsp;&lt;span style=&quot;font-size: 14px; white-space: pre;&quot;&gt;update&lt;/span&gt;&lt;span style=&quot;font-size: 14px; white-space: pre;&quot;&gt;(&lt;/span&gt;&lt;span style=&quot;font-size: 14px; white-space: pre;&quot;&gt;data&lt;/span&gt;&lt;span style=&quot;font-size: 14px; white-space: pre;&quot;&gt;:&lt;/span&gt;&lt;span style=&quot;font-size: 14px; white-space: pre;&quot;&gt; WeatherInfo&lt;/span&gt;&lt;span style=&quot;font-size: 14px; white-space: pre;&quot;&gt;)&lt;/span&gt;&lt;span style=&quot;font-size: 14px; white-space: pre;&quot;&gt;:&lt;/span&gt;&lt;span style=&quot;font-size: 14px; white-space: pre;&quot;&gt; &lt;/span&gt;&lt;span style=&quot;font-size: 14px; white-space: pre;&quot;&gt;void&lt;/span&gt;&lt;/font&gt;" style="text;strokeColor=none;fillColor=none;align=left;verticalAlign=top;spacingLeft=4;spacingRight=4;overflow=hidden;rotatable=0;points=[[0,0.5],[1,0.5]];portConstraint=eastwest;whiteSpace=wrap;html=1;fontFamily=Helvetica;" vertex="1" parent="vzlApwDzg3TMWroNLnLx-11">
          <mxGeometry y="26" width="261" height="26" as="geometry" />
        </mxCell>
        <mxCell id="vzlApwDzg3TMWroNLnLx-13" value="" style="endArrow=block;dashed=1;endFill=0;endSize=12;html=1;rounded=0;fontSize=12;curved=1;" edge="1" parent="1" source="vzlApwDzg3TMWroNLnLx-11" target="vzlApwDzg3TMWroNLnLx-9">
          <mxGeometry width="160" relative="1" as="geometry">
            <mxPoint x="310" y="352" as="sourcePoint" />
            <mxPoint x="310" y="273" as="targetPoint" />
          </mxGeometry>
        </mxCell>
        <mxCell id="vzlApwDzg3TMWroNLnLx-14" value="&lt;div&gt;&lt;br&gt;&lt;/div&gt;&lt;div&gt;&lt;br&gt;&lt;/div&gt;" style="endArrow=open;html=1;endSize=12;startArrow=diamondThin;startSize=14;startFill=0;align=left;verticalAlign=bottom;rounded=0;fontSize=12;" edge="1" parent="1" source="vzlApwDzg3TMWroNLnLx-1" target="vzlApwDzg3TMWroNLnLx-9">
          <mxGeometry x="-1" y="3" relative="1" as="geometry">
            <mxPoint x="356" y="272" as="sourcePoint" />
            <mxPoint x="516" y="272" as="targetPoint" />
          </mxGeometry>
        </mxCell>
        <mxCell id="vzlApwDzg3TMWroNLnLx-15" value="StatisticDisplay" style="swimlane;fontStyle=0;childLayout=stackLayout;horizontal=1;startSize=26;fillColor=none;horizontalStack=0;resizeParent=1;resizeParentMax=0;resizeLast=0;collapsible=1;marginBottom=0;whiteSpace=wrap;html=1;" vertex="1" parent="1">
          <mxGeometry x="821" y="342" width="261" height="52" as="geometry" />
        </mxCell>
        <mxCell id="vzlApwDzg3TMWroNLnLx-16" value="&lt;font style=&quot;color: rgb(0, 0, 0); background-color: rgb(255, 255, 255);&quot;&gt;+&amp;nbsp;&lt;span style=&quot;font-size: 14px; white-space: pre;&quot;&gt;update&lt;/span&gt;&lt;span style=&quot;font-size: 14px; white-space: pre;&quot;&gt;(&lt;/span&gt;&lt;span style=&quot;font-size: 14px; white-space: pre;&quot;&gt;data&lt;/span&gt;&lt;span style=&quot;font-size: 14px; white-space: pre;&quot;&gt;:&lt;/span&gt;&lt;span style=&quot;font-size: 14px; white-space: pre;&quot;&gt; WeatherInfo&lt;/span&gt;&lt;span style=&quot;font-size: 14px; white-space: pre;&quot;&gt;)&lt;/span&gt;&lt;span style=&quot;font-size: 14px; white-space: pre;&quot;&gt;:&lt;/span&gt;&lt;span style=&quot;font-size: 14px; white-space: pre;&quot;&gt; &lt;/span&gt;&lt;span style=&quot;font-size: 14px; white-space: pre;&quot;&gt;void&lt;/span&gt;&lt;/font&gt;" style="text;strokeColor=none;fillColor=none;align=left;verticalAlign=top;spacingLeft=4;spacingRight=4;overflow=hidden;rotatable=0;points=[[0,0.5],[1,0.5]];portConstraint=eastwest;whiteSpace=wrap;html=1;fontFamily=Helvetica;" vertex="1" parent="vzlApwDzg3TMWroNLnLx-15">
          <mxGeometry y="26" width="261" height="26" as="geometry" />
        </mxCell>
        <mxCell id="vzlApwDzg3TMWroNLnLx-17" value="" style="endArrow=block;dashed=1;endFill=0;endSize=12;html=1;rounded=0;fontSize=12;curved=1;" edge="1" parent="1" source="vzlApwDzg3TMWroNLnLx-15" target="vzlApwDzg3TMWroNLnLx-9">
          <mxGeometry width="160" relative="1" as="geometry">
            <mxPoint x="752" y="357" as="sourcePoint" />
            <mxPoint x="751" y="246" as="targetPoint" />
          </mxGeometry>
        </mxCell>
      </root>
    </mxGraphModel>
  </diagram>
  <diagram id="XDfJ_k28SIabC8uczMJV" name="4">
    <mxGraphModel dx="1434" dy="738" grid="1" gridSize="10" guides="1" tooltips="1" connect="1" arrows="1" fold="1" page="1" pageScale="1" pageWidth="827" pageHeight="1169" math="0" shadow="0">
      <root>
        <mxCell id="0" />
        <mxCell id="1" parent="0" />
        <mxCell id="H5DcYU154NKlWG3TU_Ru-1" value="&lt;i&gt;&amp;lt;&amp;lt;Interface&amp;gt;&amp;gt;&lt;/i&gt;&lt;br&gt;&lt;b&gt;IObservable&amp;lt;T&amp;gt;&lt;/b&gt;" style="swimlane;fontStyle=0;childLayout=stackLayout;horizontal=1;startSize=39;fillColor=none;horizontalStack=0;resizeParent=1;resizeParentMax=0;resizeLast=0;collapsible=1;marginBottom=0;whiteSpace=wrap;html=1;fontColor=#000000;labelBackgroundColor=#FFFFFF;" vertex="1" parent="1">
          <mxGeometry x="140" y="155" width="339" height="118" as="geometry" />
        </mxCell>
        <mxCell id="H5DcYU154NKlWG3TU_Ru-2" value="&lt;font style=&quot;color: rgb(0, 0, 0); background-color: rgb(255, 255, 255);&quot;&gt;+&amp;nbsp;&lt;span style=&quot;font-size: 14px; white-space: pre;&quot;&gt;registerObserver&lt;/span&gt;&lt;span style=&quot;font-size: 14px; white-space: pre;&quot;&gt;(&lt;/span&gt;&lt;span style=&quot;font-size: 14px; white-space: pre;&quot;&gt;observer&lt;/span&gt;&lt;span style=&quot;font-size: 14px; white-space: pre;&quot;&gt;:&lt;/span&gt;&lt;span style=&quot;font-size: 14px; white-space: pre;&quot;&gt; &lt;/span&gt;&lt;span style=&quot;font-size: 14px; white-space: pre;&quot;&gt;IObserver&lt;/span&gt;&lt;span style=&quot;font-size: 14px; white-space: pre;&quot;&gt;&amp;lt;&lt;/span&gt;&lt;span style=&quot;font-size: 14px; white-space: pre;&quot;&gt;T&lt;/span&gt;&lt;span style=&quot;font-size: 14px; white-space: pre;&quot;&gt;&amp;gt;)&lt;/span&gt;&lt;span style=&quot;font-size: 14px; white-space: pre;&quot;&gt;:&lt;/span&gt;&lt;span style=&quot;font-size: 14px; white-space: pre;&quot;&gt; &lt;/span&gt;&lt;span style=&quot;font-size: 14px; white-space: pre;&quot;&gt;void&lt;/span&gt;&lt;/font&gt;" style="text;strokeColor=none;fillColor=none;align=left;verticalAlign=top;spacingLeft=4;spacingRight=4;overflow=hidden;rotatable=0;points=[[0,0.5],[1,0.5]];portConstraint=eastwest;whiteSpace=wrap;html=1;fontFamily=Helvetica;" vertex="1" parent="H5DcYU154NKlWG3TU_Ru-1">
          <mxGeometry y="39" width="339" height="26" as="geometry" />
        </mxCell>
        <mxCell id="H5DcYU154NKlWG3TU_Ru-3" value="+&amp;nbsp;&lt;span style=&quot;font-size: 14px; white-space: pre;&quot;&gt;removeObserver&lt;/span&gt;&lt;span style=&quot;font-size: 14px; white-space: pre;&quot;&gt;(&lt;/span&gt;&lt;span style=&quot;font-size: 14px; white-space: pre;&quot;&gt;observer&lt;/span&gt;&lt;span style=&quot;font-size: 14px; white-space: pre;&quot;&gt;:&lt;/span&gt;&lt;span style=&quot;font-size: 14px; white-space: pre;&quot;&gt; &lt;/span&gt;&lt;span style=&quot;font-size: 14px; white-space: pre;&quot;&gt;IObserver&lt;/span&gt;&lt;span style=&quot;font-size: 14px; white-space: pre;&quot;&gt;&amp;lt;&lt;/span&gt;&lt;span style=&quot;font-size: 14px; white-space: pre;&quot;&gt;T&lt;/span&gt;&lt;span style=&quot;font-size: 14px; white-space: pre;&quot;&gt;&amp;gt;)&lt;/span&gt;&lt;span style=&quot;font-size: 14px; white-space: pre;&quot;&gt;:&lt;/span&gt;&lt;span style=&quot;font-size: 14px; white-space: pre;&quot;&gt; &lt;/span&gt;&lt;span style=&quot;font-size: 14px; white-space: pre;&quot;&gt;void&lt;/span&gt;" style="text;strokeColor=none;fillColor=none;align=left;verticalAlign=top;spacingLeft=4;spacingRight=4;overflow=hidden;rotatable=0;points=[[0,0.5],[1,0.5]];portConstraint=eastwest;whiteSpace=wrap;html=1;fontColor=#000000;labelBackgroundColor=#FFFFFF;fontFamily=Helvetica;" vertex="1" parent="H5DcYU154NKlWG3TU_Ru-1">
          <mxGeometry y="65" width="339" height="26" as="geometry" />
        </mxCell>
        <mxCell id="H5DcYU154NKlWG3TU_Ru-4" value="+&amp;nbsp;&lt;span style=&quot;font-size: 14px; white-space: pre;&quot;&gt;notifyObservers&lt;/span&gt;&lt;span style=&quot;font-size: 14px; white-space: pre;&quot;&gt;()&lt;/span&gt;&lt;span style=&quot;font-size: 14px; white-space: pre;&quot;&gt;:&lt;/span&gt;&lt;span style=&quot;font-size: 14px; white-space: pre;&quot;&gt; &lt;/span&gt;&lt;span style=&quot;font-size: 14px; white-space: pre;&quot;&gt;void&lt;/span&gt;" style="text;strokeColor=none;fillColor=none;align=left;verticalAlign=top;spacingLeft=4;spacingRight=4;overflow=hidden;rotatable=0;points=[[0,0.5],[1,0.5]];portConstraint=eastwest;whiteSpace=wrap;html=1;fontColor=#000000;labelBackgroundColor=#FFFFFF;fontFamily=Helvetica;" vertex="1" parent="H5DcYU154NKlWG3TU_Ru-1">
          <mxGeometry y="91" width="339" height="27" as="geometry" />
        </mxCell>
        <mxCell id="H5DcYU154NKlWG3TU_Ru-5" value="Observable&amp;lt;T&amp;gt;" style="swimlane;fontStyle=0;childLayout=stackLayout;horizontal=1;startSize=26;fillColor=none;horizontalStack=0;resizeParent=1;resizeParentMax=0;resizeLast=0;collapsible=1;marginBottom=0;whiteSpace=wrap;html=1;" vertex="1" parent="1">
          <mxGeometry x="140" y="352" width="341" height="36" as="geometry" />
        </mxCell>
        <mxCell id="H5DcYU154NKlWG3TU_Ru-6" value="" style="endArrow=block;dashed=1;endFill=0;endSize=12;html=1;rounded=0;fontSize=12;curved=1;" edge="1" parent="1" source="H5DcYU154NKlWG3TU_Ru-5" target="H5DcYU154NKlWG3TU_Ru-1">
          <mxGeometry width="160" relative="1" as="geometry">
            <mxPoint x="293" y="313" as="sourcePoint" />
            <mxPoint x="453" y="313" as="targetPoint" />
          </mxGeometry>
        </mxCell>
        <mxCell id="H5DcYU154NKlWG3TU_Ru-7" value="WeatherData" style="swimlane;fontStyle=0;childLayout=stackLayout;horizontal=1;startSize=26;fillColor=none;horizontalStack=0;resizeParent=1;resizeParentMax=0;resizeLast=0;collapsible=1;marginBottom=0;whiteSpace=wrap;html=1;" vertex="1" parent="1">
          <mxGeometry x="140" y="475" width="342" height="36" as="geometry" />
        </mxCell>
        <mxCell id="H5DcYU154NKlWG3TU_Ru-8" value="Extends" style="endArrow=block;endSize=16;endFill=0;html=1;rounded=0;fontSize=12;curved=1;exitX=0.5;exitY=0;exitDx=0;exitDy=0;" edge="1" parent="1" source="H5DcYU154NKlWG3TU_Ru-7" target="H5DcYU154NKlWG3TU_Ru-5">
          <mxGeometry width="160" relative="1" as="geometry">
            <mxPoint x="407" y="279" as="sourcePoint" />
            <mxPoint x="567" y="279" as="targetPoint" />
          </mxGeometry>
        </mxCell>
        <mxCell id="H5DcYU154NKlWG3TU_Ru-9" value="&lt;i&gt;&amp;lt;&amp;lt;Interface&amp;gt;&amp;gt;&lt;/i&gt;&lt;br&gt;&lt;b&gt;IObserver&amp;lt;T&amp;gt;&lt;/b&gt;" style="swimlane;fontStyle=0;childLayout=stackLayout;horizontal=1;startSize=38;fillColor=none;horizontalStack=0;resizeParent=1;resizeParentMax=0;resizeLast=0;collapsible=1;marginBottom=0;whiteSpace=wrap;html=1;" vertex="1" parent="1">
          <mxGeometry x="696" y="182" width="261" height="64" as="geometry" />
        </mxCell>
        <mxCell id="H5DcYU154NKlWG3TU_Ru-10" value="&lt;font style=&quot;color: rgb(0, 0, 0); background-color: rgb(255, 255, 255);&quot;&gt;+&amp;nbsp;&lt;span style=&quot;font-size: 14px; white-space: pre;&quot;&gt;update&lt;/span&gt;&lt;span style=&quot;font-size: 14px; white-space: pre;&quot;&gt;(&lt;/span&gt;&lt;span style=&quot;font-size: 14px; white-space: pre;&quot;&gt;data&lt;/span&gt;&lt;span style=&quot;font-size: 14px; white-space: pre;&quot;&gt;:&lt;/span&gt;&lt;span style=&quot;font-size: 14px; white-space: pre;&quot;&gt; &lt;/span&gt;&lt;span style=&quot;font-size: 14px; white-space: pre;&quot;&gt;T&lt;/span&gt;&lt;span style=&quot;font-size: 14px; white-space: pre;&quot;&gt;)&lt;/span&gt;&lt;span style=&quot;font-size: 14px; white-space: pre;&quot;&gt;:&lt;/span&gt;&lt;span style=&quot;font-size: 14px; white-space: pre;&quot;&gt; &lt;/span&gt;&lt;span style=&quot;font-size: 14px; white-space: pre;&quot;&gt;void&lt;/span&gt;&lt;/font&gt;" style="text;strokeColor=none;fillColor=none;align=left;verticalAlign=top;spacingLeft=4;spacingRight=4;overflow=hidden;rotatable=0;points=[[0,0.5],[1,0.5]];portConstraint=eastwest;whiteSpace=wrap;html=1;fontFamily=Helvetica;" vertex="1" parent="H5DcYU154NKlWG3TU_Ru-9">
          <mxGeometry y="38" width="261" height="26" as="geometry" />
        </mxCell>
        <mxCell id="H5DcYU154NKlWG3TU_Ru-11" value="Display" style="swimlane;fontStyle=0;childLayout=stackLayout;horizontal=1;startSize=26;fillColor=none;horizontalStack=0;resizeParent=1;resizeParentMax=0;resizeLast=0;collapsible=1;marginBottom=0;whiteSpace=wrap;html=1;" vertex="1" parent="1">
          <mxGeometry x="541" y="352" width="261" height="52" as="geometry" />
        </mxCell>
        <mxCell id="H5DcYU154NKlWG3TU_Ru-12" value="&lt;font style=&quot;color: rgb(0, 0, 0); background-color: rgb(255, 255, 255);&quot;&gt;+&amp;nbsp;&lt;span style=&quot;font-size: 14px; white-space: pre;&quot;&gt;update&lt;/span&gt;&lt;span style=&quot;font-size: 14px; white-space: pre;&quot;&gt;(&lt;/span&gt;&lt;span style=&quot;font-size: 14px; white-space: pre;&quot;&gt;data&lt;/span&gt;&lt;span style=&quot;font-size: 14px; white-space: pre;&quot;&gt;:&lt;/span&gt;&lt;span style=&quot;font-size: 14px; white-space: pre;&quot;&gt; WeatherInfo&lt;/span&gt;&lt;span style=&quot;font-size: 14px; white-space: pre;&quot;&gt;)&lt;/span&gt;&lt;span style=&quot;font-size: 14px; white-space: pre;&quot;&gt;:&lt;/span&gt;&lt;span style=&quot;font-size: 14px; white-space: pre;&quot;&gt; &lt;/span&gt;&lt;span style=&quot;font-size: 14px; white-space: pre;&quot;&gt;void&lt;/span&gt;&lt;/font&gt;" style="text;strokeColor=none;fillColor=none;align=left;verticalAlign=top;spacingLeft=4;spacingRight=4;overflow=hidden;rotatable=0;points=[[0,0.5],[1,0.5]];portConstraint=eastwest;whiteSpace=wrap;html=1;fontFamily=Helvetica;" vertex="1" parent="H5DcYU154NKlWG3TU_Ru-11">
          <mxGeometry y="26" width="261" height="26" as="geometry" />
        </mxCell>
        <mxCell id="H5DcYU154NKlWG3TU_Ru-13" value="" style="endArrow=block;dashed=1;endFill=0;endSize=12;html=1;rounded=0;fontSize=12;curved=1;" edge="1" parent="1" source="H5DcYU154NKlWG3TU_Ru-11" target="H5DcYU154NKlWG3TU_Ru-9">
          <mxGeometry width="160" relative="1" as="geometry">
            <mxPoint x="320" y="362" as="sourcePoint" />
            <mxPoint x="320" y="283" as="targetPoint" />
          </mxGeometry>
        </mxCell>
        <mxCell id="H5DcYU154NKlWG3TU_Ru-14" value="&lt;div&gt;&lt;br&gt;&lt;/div&gt;&lt;div&gt;&lt;br&gt;&lt;/div&gt;" style="endArrow=open;html=1;endSize=12;startArrow=diamondThin;startSize=14;startFill=0;align=left;verticalAlign=bottom;rounded=0;fontSize=12;" edge="1" parent="1" source="H5DcYU154NKlWG3TU_Ru-1" target="H5DcYU154NKlWG3TU_Ru-9">
          <mxGeometry x="-1" y="3" relative="1" as="geometry">
            <mxPoint x="366" y="282" as="sourcePoint" />
            <mxPoint x="526" y="282" as="targetPoint" />
          </mxGeometry>
        </mxCell>
        <mxCell id="H5DcYU154NKlWG3TU_Ru-15" value="StatisticDisplay" style="swimlane;fontStyle=0;childLayout=stackLayout;horizontal=1;startSize=26;fillColor=none;horizontalStack=0;resizeParent=1;resizeParentMax=0;resizeLast=0;collapsible=1;marginBottom=0;whiteSpace=wrap;html=1;" vertex="1" parent="1">
          <mxGeometry x="831" y="352" width="261" height="52" as="geometry" />
        </mxCell>
        <mxCell id="H5DcYU154NKlWG3TU_Ru-16" value="&lt;font style=&quot;color: rgb(0, 0, 0); background-color: rgb(255, 255, 255);&quot;&gt;+&amp;nbsp;&lt;span style=&quot;font-size: 14px; white-space: pre;&quot;&gt;update&lt;/span&gt;&lt;span style=&quot;font-size: 14px; white-space: pre;&quot;&gt;(&lt;/span&gt;&lt;span style=&quot;font-size: 14px; white-space: pre;&quot;&gt;data&lt;/span&gt;&lt;span style=&quot;font-size: 14px; white-space: pre;&quot;&gt;:&lt;/span&gt;&lt;span style=&quot;font-size: 14px; white-space: pre;&quot;&gt; WeatherInfo&lt;/span&gt;&lt;span style=&quot;font-size: 14px; white-space: pre;&quot;&gt;)&lt;/span&gt;&lt;span style=&quot;font-size: 14px; white-space: pre;&quot;&gt;:&lt;/span&gt;&lt;span style=&quot;font-size: 14px; white-space: pre;&quot;&gt; &lt;/span&gt;&lt;span style=&quot;font-size: 14px; white-space: pre;&quot;&gt;void&lt;/span&gt;&lt;/font&gt;" style="text;strokeColor=none;fillColor=none;align=left;verticalAlign=top;spacingLeft=4;spacingRight=4;overflow=hidden;rotatable=0;points=[[0,0.5],[1,0.5]];portConstraint=eastwest;whiteSpace=wrap;html=1;fontFamily=Helvetica;" vertex="1" parent="H5DcYU154NKlWG3TU_Ru-15">
          <mxGeometry y="26" width="261" height="26" as="geometry" />
        </mxCell>
        <mxCell id="H5DcYU154NKlWG3TU_Ru-17" value="" style="endArrow=block;dashed=1;endFill=0;endSize=12;html=1;rounded=0;fontSize=12;curved=1;" edge="1" parent="1" source="H5DcYU154NKlWG3TU_Ru-15" target="H5DcYU154NKlWG3TU_Ru-9">
          <mxGeometry width="160" relative="1" as="geometry">
            <mxPoint x="762" y="367" as="sourcePoint" />
            <mxPoint x="761" y="256" as="targetPoint" />
          </mxGeometry>
        </mxCell>
        <mxCell id="H5DcYU154NKlWG3TU_Ru-18" value="IndoorWeatherData" style="swimlane;fontStyle=0;childLayout=stackLayout;horizontal=1;startSize=26;fillColor=none;horizontalStack=0;resizeParent=1;resizeParentMax=0;resizeLast=0;collapsible=1;marginBottom=0;whiteSpace=wrap;html=1;" vertex="1" parent="1">
          <mxGeometry x="82" y="577" width="196" height="36" as="geometry" />
        </mxCell>
        <mxCell id="H5DcYU154NKlWG3TU_Ru-19" value="OutdoorWeatherData" style="swimlane;fontStyle=0;childLayout=stackLayout;horizontal=1;startSize=26;fillColor=none;horizontalStack=0;resizeParent=1;resizeParentMax=0;resizeLast=0;collapsible=1;marginBottom=0;whiteSpace=wrap;html=1;" vertex="1" parent="1">
          <mxGeometry x="334" y="577" width="201" height="36" as="geometry" />
        </mxCell>
        <mxCell id="H5DcYU154NKlWG3TU_Ru-20" value="Extends" style="endArrow=block;endSize=16;endFill=0;html=1;rounded=0;fontSize=12;curved=1;" edge="1" parent="1" source="H5DcYU154NKlWG3TU_Ru-18" target="H5DcYU154NKlWG3TU_Ru-7">
          <mxGeometry width="160" relative="1" as="geometry">
            <mxPoint x="321" y="485" as="sourcePoint" />
            <mxPoint x="321" y="398" as="targetPoint" />
          </mxGeometry>
        </mxCell>
        <mxCell id="H5DcYU154NKlWG3TU_Ru-21" value="Extends" style="endArrow=block;endSize=16;endFill=0;html=1;rounded=0;fontSize=12;curved=1;" edge="1" parent="1" source="H5DcYU154NKlWG3TU_Ru-19" target="H5DcYU154NKlWG3TU_Ru-7">
          <mxGeometry width="160" relative="1" as="geometry">
            <mxPoint x="156" y="594" as="sourcePoint" />
            <mxPoint x="288" y="521" as="targetPoint" />
          </mxGeometry>
        </mxCell>
      </root>
    </mxGraphModel>
  </diagram>
  <diagram id="eaDuu9xKJyCmV3fcWG3N" name="5">
    <mxGraphModel dx="1434" dy="738" grid="1" gridSize="10" guides="1" tooltips="1" connect="1" arrows="1" fold="1" page="1" pageScale="1" pageWidth="827" pageHeight="1169" math="0" shadow="0">
      <root>
        <mxCell id="0" />
        <mxCell id="1" parent="0" />
        <mxCell id="tUyHrEaf4mmKyioT60cm-1" value="&lt;i&gt;&amp;lt;&amp;lt;Interface&amp;gt;&amp;gt;&lt;/i&gt;&lt;br&gt;&lt;b&gt;IObservable&amp;lt;T&amp;gt;&lt;/b&gt;" style="swimlane;fontStyle=0;childLayout=stackLayout;horizontal=1;startSize=39;fillColor=none;horizontalStack=0;resizeParent=1;resizeParentMax=0;resizeLast=0;collapsible=1;marginBottom=0;whiteSpace=wrap;html=1;fontColor=#000000;labelBackgroundColor=#FFFFFF;" vertex="1" parent="1">
          <mxGeometry x="140" y="155" width="339" height="118" as="geometry" />
        </mxCell>
        <mxCell id="tUyHrEaf4mmKyioT60cm-2" value="&lt;font style=&quot;color: rgb(0, 0, 0); background-color: rgb(255, 255, 255);&quot;&gt;+&amp;nbsp;&lt;span style=&quot;font-size: 14px; white-space: pre;&quot;&gt;registerObserver&lt;/span&gt;&lt;span style=&quot;font-size: 14px; white-space: pre;&quot;&gt;(&lt;/span&gt;&lt;span style=&quot;font-size: 14px; white-space: pre;&quot;&gt;observer&lt;/span&gt;&lt;span style=&quot;font-size: 14px; white-space: pre;&quot;&gt;:&lt;/span&gt;&lt;span style=&quot;font-size: 14px; white-space: pre;&quot;&gt; &lt;/span&gt;&lt;span style=&quot;font-size: 14px; white-space: pre;&quot;&gt;IObserver&lt;/span&gt;&lt;span style=&quot;font-size: 14px; white-space: pre;&quot;&gt;&amp;lt;&lt;/span&gt;&lt;span style=&quot;font-size: 14px; white-space: pre;&quot;&gt;T&lt;/span&gt;&lt;span style=&quot;font-size: 14px; white-space: pre;&quot;&gt;&amp;gt;)&lt;/span&gt;&lt;span style=&quot;font-size: 14px; white-space: pre;&quot;&gt;:&lt;/span&gt;&lt;span style=&quot;font-size: 14px; white-space: pre;&quot;&gt; &lt;/span&gt;&lt;span style=&quot;font-size: 14px; white-space: pre;&quot;&gt;void&lt;/span&gt;&lt;/font&gt;" style="text;strokeColor=none;fillColor=none;align=left;verticalAlign=top;spacingLeft=4;spacingRight=4;overflow=hidden;rotatable=0;points=[[0,0.5],[1,0.5]];portConstraint=eastwest;whiteSpace=wrap;html=1;fontFamily=Helvetica;" vertex="1" parent="tUyHrEaf4mmKyioT60cm-1">
          <mxGeometry y="39" width="339" height="26" as="geometry" />
        </mxCell>
        <mxCell id="tUyHrEaf4mmKyioT60cm-3" value="+&amp;nbsp;&lt;span style=&quot;font-size: 14px; white-space: pre;&quot;&gt;removeObserver&lt;/span&gt;&lt;span style=&quot;font-size: 14px; white-space: pre;&quot;&gt;(&lt;/span&gt;&lt;span style=&quot;font-size: 14px; white-space: pre;&quot;&gt;observer&lt;/span&gt;&lt;span style=&quot;font-size: 14px; white-space: pre;&quot;&gt;:&lt;/span&gt;&lt;span style=&quot;font-size: 14px; white-space: pre;&quot;&gt; &lt;/span&gt;&lt;span style=&quot;font-size: 14px; white-space: pre;&quot;&gt;IObserver&lt;/span&gt;&lt;span style=&quot;font-size: 14px; white-space: pre;&quot;&gt;&amp;lt;&lt;/span&gt;&lt;span style=&quot;font-size: 14px; white-space: pre;&quot;&gt;T&lt;/span&gt;&lt;span style=&quot;font-size: 14px; white-space: pre;&quot;&gt;&amp;gt;)&lt;/span&gt;&lt;span style=&quot;font-size: 14px; white-space: pre;&quot;&gt;:&lt;/span&gt;&lt;span style=&quot;font-size: 14px; white-space: pre;&quot;&gt; &lt;/span&gt;&lt;span style=&quot;font-size: 14px; white-space: pre;&quot;&gt;void&lt;/span&gt;" style="text;strokeColor=none;fillColor=none;align=left;verticalAlign=top;spacingLeft=4;spacingRight=4;overflow=hidden;rotatable=0;points=[[0,0.5],[1,0.5]];portConstraint=eastwest;whiteSpace=wrap;html=1;fontColor=#000000;labelBackgroundColor=#FFFFFF;fontFamily=Helvetica;" vertex="1" parent="tUyHrEaf4mmKyioT60cm-1">
          <mxGeometry y="65" width="339" height="26" as="geometry" />
        </mxCell>
        <mxCell id="tUyHrEaf4mmKyioT60cm-4" value="+&amp;nbsp;&lt;span style=&quot;font-size: 14px; white-space: pre;&quot;&gt;notifyObservers&lt;/span&gt;&lt;span style=&quot;font-size: 14px; white-space: pre;&quot;&gt;()&lt;/span&gt;&lt;span style=&quot;font-size: 14px; white-space: pre;&quot;&gt;:&lt;/span&gt;&lt;span style=&quot;font-size: 14px; white-space: pre;&quot;&gt; &lt;/span&gt;&lt;span style=&quot;font-size: 14px; white-space: pre;&quot;&gt;void&lt;/span&gt;" style="text;strokeColor=none;fillColor=none;align=left;verticalAlign=top;spacingLeft=4;spacingRight=4;overflow=hidden;rotatable=0;points=[[0,0.5],[1,0.5]];portConstraint=eastwest;whiteSpace=wrap;html=1;fontColor=#000000;labelBackgroundColor=#FFFFFF;fontFamily=Helvetica;" vertex="1" parent="tUyHrEaf4mmKyioT60cm-1">
          <mxGeometry y="91" width="339" height="27" as="geometry" />
        </mxCell>
        <mxCell id="tUyHrEaf4mmKyioT60cm-5" value="Observable&amp;lt;T&amp;gt;" style="swimlane;fontStyle=0;childLayout=stackLayout;horizontal=1;startSize=26;fillColor=none;horizontalStack=0;resizeParent=1;resizeParentMax=0;resizeLast=0;collapsible=1;marginBottom=0;whiteSpace=wrap;html=1;" vertex="1" parent="1">
          <mxGeometry x="140" y="352" width="341" height="36" as="geometry" />
        </mxCell>
        <mxCell id="tUyHrEaf4mmKyioT60cm-6" value="" style="endArrow=block;dashed=1;endFill=0;endSize=12;html=1;rounded=0;fontSize=12;curved=1;" edge="1" parent="1" source="tUyHrEaf4mmKyioT60cm-5" target="tUyHrEaf4mmKyioT60cm-1">
          <mxGeometry width="160" relative="1" as="geometry">
            <mxPoint x="293" y="313" as="sourcePoint" />
            <mxPoint x="453" y="313" as="targetPoint" />
          </mxGeometry>
        </mxCell>
        <mxCell id="tUyHrEaf4mmKyioT60cm-7" value="WeatherData" style="swimlane;fontStyle=0;childLayout=stackLayout;horizontal=1;startSize=26;fillColor=none;horizontalStack=0;resizeParent=1;resizeParentMax=0;resizeLast=0;collapsible=1;marginBottom=0;whiteSpace=wrap;html=1;" vertex="1" parent="1">
          <mxGeometry x="140" y="475" width="342" height="36" as="geometry" />
        </mxCell>
        <mxCell id="tUyHrEaf4mmKyioT60cm-8" value="Extends" style="endArrow=block;endSize=16;endFill=0;html=1;rounded=0;fontSize=12;curved=1;exitX=0.5;exitY=0;exitDx=0;exitDy=0;" edge="1" parent="1" source="tUyHrEaf4mmKyioT60cm-7" target="tUyHrEaf4mmKyioT60cm-5">
          <mxGeometry width="160" relative="1" as="geometry">
            <mxPoint x="407" y="279" as="sourcePoint" />
            <mxPoint x="567" y="279" as="targetPoint" />
          </mxGeometry>
        </mxCell>
        <mxCell id="tUyHrEaf4mmKyioT60cm-9" value="&lt;i&gt;&amp;lt;&amp;lt;Interface&amp;gt;&amp;gt;&lt;/i&gt;&lt;br&gt;&lt;b&gt;IObserver&amp;lt;T&amp;gt;&lt;/b&gt;" style="swimlane;fontStyle=0;childLayout=stackLayout;horizontal=1;startSize=38;fillColor=none;horizontalStack=0;resizeParent=1;resizeParentMax=0;resizeLast=0;collapsible=1;marginBottom=0;whiteSpace=wrap;html=1;" vertex="1" parent="1">
          <mxGeometry x="696" y="182" width="261" height="64" as="geometry" />
        </mxCell>
        <mxCell id="tUyHrEaf4mmKyioT60cm-10" value="&lt;font style=&quot;color: rgb(0, 0, 0); background-color: rgb(255, 255, 255);&quot;&gt;+&amp;nbsp;&lt;span style=&quot;font-size: 14px; white-space: pre;&quot;&gt;update&lt;/span&gt;&lt;span style=&quot;font-size: 14px; white-space: pre;&quot;&gt;(&lt;/span&gt;&lt;span style=&quot;font-size: 14px; white-space: pre;&quot;&gt;data&lt;/span&gt;&lt;span style=&quot;font-size: 14px; white-space: pre;&quot;&gt;:&lt;/span&gt;&lt;span style=&quot;font-size: 14px; white-space: pre;&quot;&gt; &lt;/span&gt;&lt;span style=&quot;font-size: 14px; white-space: pre;&quot;&gt;T&lt;/span&gt;&lt;span style=&quot;font-size: 14px; white-space: pre;&quot;&gt;)&lt;/span&gt;&lt;span style=&quot;font-size: 14px; white-space: pre;&quot;&gt;:&lt;/span&gt;&lt;span style=&quot;font-size: 14px; white-space: pre;&quot;&gt; &lt;/span&gt;&lt;span style=&quot;font-size: 14px; white-space: pre;&quot;&gt;void&lt;/span&gt;&lt;/font&gt;" style="text;strokeColor=none;fillColor=none;align=left;verticalAlign=top;spacingLeft=4;spacingRight=4;overflow=hidden;rotatable=0;points=[[0,0.5],[1,0.5]];portConstraint=eastwest;whiteSpace=wrap;html=1;fontFamily=Helvetica;" vertex="1" parent="tUyHrEaf4mmKyioT60cm-9">
          <mxGeometry y="38" width="261" height="26" as="geometry" />
        </mxCell>
        <mxCell id="tUyHrEaf4mmKyioT60cm-11" value="Display" style="swimlane;fontStyle=0;childLayout=stackLayout;horizontal=1;startSize=26;fillColor=none;horizontalStack=0;resizeParent=1;resizeParentMax=0;resizeLast=0;collapsible=1;marginBottom=0;whiteSpace=wrap;html=1;" vertex="1" parent="1">
          <mxGeometry x="541" y="352" width="261" height="52" as="geometry" />
        </mxCell>
        <mxCell id="tUyHrEaf4mmKyioT60cm-12" value="&lt;font style=&quot;color: rgb(0, 0, 0); background-color: rgb(255, 255, 255);&quot;&gt;+&amp;nbsp;&lt;span style=&quot;font-size: 14px; white-space: pre;&quot;&gt;update&lt;/span&gt;&lt;span style=&quot;font-size: 14px; white-space: pre;&quot;&gt;(&lt;/span&gt;&lt;span style=&quot;font-size: 14px; white-space: pre;&quot;&gt;data&lt;/span&gt;&lt;span style=&quot;font-size: 14px; white-space: pre;&quot;&gt;:&lt;/span&gt;&lt;span style=&quot;font-size: 14px; white-space: pre;&quot;&gt; WeatherInfo&lt;/span&gt;&lt;span style=&quot;font-size: 14px; white-space: pre;&quot;&gt;)&lt;/span&gt;&lt;span style=&quot;font-size: 14px; white-space: pre;&quot;&gt;:&lt;/span&gt;&lt;span style=&quot;font-size: 14px; white-space: pre;&quot;&gt; &lt;/span&gt;&lt;span style=&quot;font-size: 14px; white-space: pre;&quot;&gt;void&lt;/span&gt;&lt;/font&gt;" style="text;strokeColor=none;fillColor=none;align=left;verticalAlign=top;spacingLeft=4;spacingRight=4;overflow=hidden;rotatable=0;points=[[0,0.5],[1,0.5]];portConstraint=eastwest;whiteSpace=wrap;html=1;fontFamily=Helvetica;" vertex="1" parent="tUyHrEaf4mmKyioT60cm-11">
          <mxGeometry y="26" width="261" height="26" as="geometry" />
        </mxCell>
        <mxCell id="tUyHrEaf4mmKyioT60cm-13" value="" style="endArrow=block;dashed=1;endFill=0;endSize=12;html=1;rounded=0;fontSize=12;curved=1;" edge="1" parent="1" source="tUyHrEaf4mmKyioT60cm-11" target="tUyHrEaf4mmKyioT60cm-9">
          <mxGeometry width="160" relative="1" as="geometry">
            <mxPoint x="320" y="362" as="sourcePoint" />
            <mxPoint x="320" y="283" as="targetPoint" />
          </mxGeometry>
        </mxCell>
        <mxCell id="tUyHrEaf4mmKyioT60cm-14" value="&lt;div&gt;&lt;br&gt;&lt;/div&gt;&lt;div&gt;&lt;br&gt;&lt;/div&gt;" style="endArrow=open;html=1;endSize=12;startArrow=diamondThin;startSize=14;startFill=0;align=left;verticalAlign=bottom;rounded=0;fontSize=12;" edge="1" parent="1" source="tUyHrEaf4mmKyioT60cm-1" target="tUyHrEaf4mmKyioT60cm-9">
          <mxGeometry x="-1" y="3" relative="1" as="geometry">
            <mxPoint x="366" y="282" as="sourcePoint" />
            <mxPoint x="526" y="282" as="targetPoint" />
          </mxGeometry>
        </mxCell>
        <mxCell id="tUyHrEaf4mmKyioT60cm-15" value="StatisticDisplay" style="swimlane;fontStyle=0;childLayout=stackLayout;horizontal=1;startSize=26;fillColor=none;horizontalStack=0;resizeParent=1;resizeParentMax=0;resizeLast=0;collapsible=1;marginBottom=0;whiteSpace=wrap;html=1;" vertex="1" parent="1">
          <mxGeometry x="831" y="352" width="261" height="52" as="geometry" />
        </mxCell>
        <mxCell id="tUyHrEaf4mmKyioT60cm-16" value="&lt;font style=&quot;color: rgb(0, 0, 0); background-color: rgb(255, 255, 255);&quot;&gt;+&amp;nbsp;&lt;span style=&quot;font-size: 14px; white-space: pre;&quot;&gt;update&lt;/span&gt;&lt;span style=&quot;font-size: 14px; white-space: pre;&quot;&gt;(&lt;/span&gt;&lt;span style=&quot;font-size: 14px; white-space: pre;&quot;&gt;data&lt;/span&gt;&lt;span style=&quot;font-size: 14px; white-space: pre;&quot;&gt;:&lt;/span&gt;&lt;span style=&quot;font-size: 14px; white-space: pre;&quot;&gt; WeatherInfo&lt;/span&gt;&lt;span style=&quot;font-size: 14px; white-space: pre;&quot;&gt;)&lt;/span&gt;&lt;span style=&quot;font-size: 14px; white-space: pre;&quot;&gt;:&lt;/span&gt;&lt;span style=&quot;font-size: 14px; white-space: pre;&quot;&gt; &lt;/span&gt;&lt;span style=&quot;font-size: 14px; white-space: pre;&quot;&gt;void&lt;/span&gt;&lt;/font&gt;" style="text;strokeColor=none;fillColor=none;align=left;verticalAlign=top;spacingLeft=4;spacingRight=4;overflow=hidden;rotatable=0;points=[[0,0.5],[1,0.5]];portConstraint=eastwest;whiteSpace=wrap;html=1;fontFamily=Helvetica;" vertex="1" parent="tUyHrEaf4mmKyioT60cm-15">
          <mxGeometry y="26" width="261" height="26" as="geometry" />
        </mxCell>
        <mxCell id="tUyHrEaf4mmKyioT60cm-17" value="" style="endArrow=block;dashed=1;endFill=0;endSize=12;html=1;rounded=0;fontSize=12;curved=1;" edge="1" parent="1" source="tUyHrEaf4mmKyioT60cm-15" target="tUyHrEaf4mmKyioT60cm-9">
          <mxGeometry width="160" relative="1" as="geometry">
            <mxPoint x="762" y="367" as="sourcePoint" />
            <mxPoint x="761" y="256" as="targetPoint" />
          </mxGeometry>
        </mxCell>
        <mxCell id="tUyHrEaf4mmKyioT60cm-18" value="IndoorWeatherData" style="swimlane;fontStyle=0;childLayout=stackLayout;horizontal=1;startSize=26;fillColor=none;horizontalStack=0;resizeParent=1;resizeParentMax=0;resizeLast=0;collapsible=1;marginBottom=0;whiteSpace=wrap;html=1;" vertex="1" parent="1">
          <mxGeometry x="82" y="577" width="196" height="36" as="geometry" />
        </mxCell>
        <mxCell id="tUyHrEaf4mmKyioT60cm-19" value="OutdoorWeatherData" style="swimlane;fontStyle=0;childLayout=stackLayout;horizontal=1;startSize=26;fillColor=none;horizontalStack=0;resizeParent=1;resizeParentMax=0;resizeLast=0;collapsible=1;marginBottom=0;whiteSpace=wrap;html=1;" vertex="1" parent="1">
          <mxGeometry x="334" y="577" width="201" height="36" as="geometry" />
        </mxCell>
        <mxCell id="tUyHrEaf4mmKyioT60cm-20" value="Extends" style="endArrow=block;endSize=16;endFill=0;html=1;rounded=0;fontSize=12;curved=1;" edge="1" parent="1" source="tUyHrEaf4mmKyioT60cm-18" target="tUyHrEaf4mmKyioT60cm-7">
          <mxGeometry width="160" relative="1" as="geometry">
            <mxPoint x="321" y="485" as="sourcePoint" />
            <mxPoint x="321" y="398" as="targetPoint" />
          </mxGeometry>
        </mxCell>
        <mxCell id="tUyHrEaf4mmKyioT60cm-21" value="Extends" style="endArrow=block;endSize=16;endFill=0;html=1;rounded=0;fontSize=12;curved=1;" edge="1" parent="1" source="tUyHrEaf4mmKyioT60cm-19" target="tUyHrEaf4mmKyioT60cm-7">
          <mxGeometry width="160" relative="1" as="geometry">
            <mxPoint x="156" y="594" as="sourcePoint" />
            <mxPoint x="288" y="521" as="targetPoint" />
          </mxGeometry>
        </mxCell>
      </root>
    </mxGraphModel>
  </diagram>
  <diagram id="gYZh4ndiejO8q-QApvwl" name="6">
    <mxGraphModel dx="1434" dy="738" grid="1" gridSize="10" guides="1" tooltips="1" connect="1" arrows="1" fold="1" page="1" pageScale="1" pageWidth="827" pageHeight="1169" math="0" shadow="0">
      <root>
        <mxCell id="0" />
        <mxCell id="1" parent="0" />
      </root>
    </mxGraphModel>
  </diagram>
  <diagram id="d0LYJCX2A0To5Y3yjeo-" name="7">
    <mxGraphModel dx="2261" dy="738" grid="1" gridSize="10" guides="1" tooltips="1" connect="1" arrows="1" fold="1" page="1" pageScale="1" pageWidth="827" pageHeight="1169" math="0" shadow="0">
      <root>
        <mxCell id="0" />
        <mxCell id="1" parent="0" />
        <mxCell id="B1eMzNVtzVXtAmoFmtZy-1" value="&lt;i&gt;&amp;lt;&amp;lt;Interface&amp;gt;&amp;gt;&lt;/i&gt;&lt;br&gt;&lt;b&gt;IObservable&amp;lt;T&amp;gt;&lt;/b&gt;" style="swimlane;fontStyle=0;childLayout=stackLayout;horizontal=1;startSize=39;fillColor=none;horizontalStack=0;resizeParent=1;resizeParentMax=0;resizeLast=0;collapsible=1;marginBottom=0;whiteSpace=wrap;html=1;fontColor=#000000;labelBackgroundColor=#FFFFFF;" vertex="1" parent="1">
          <mxGeometry x="140" y="155" width="339" height="118" as="geometry" />
        </mxCell>
        <mxCell id="B1eMzNVtzVXtAmoFmtZy-2" value="&lt;font style=&quot;color: rgb(0, 0, 0); background-color: rgb(255, 255, 255);&quot;&gt;+&amp;nbsp;&lt;span style=&quot;font-size: 14px; white-space: pre;&quot;&gt;registerObserver&lt;/span&gt;&lt;span style=&quot;font-size: 14px; white-space: pre;&quot;&gt;(&lt;/span&gt;&lt;span style=&quot;font-size: 14px; white-space: pre;&quot;&gt;observer&lt;/span&gt;&lt;span style=&quot;font-size: 14px; white-space: pre;&quot;&gt;:&lt;/span&gt;&lt;span style=&quot;font-size: 14px; white-space: pre;&quot;&gt; &lt;/span&gt;&lt;span style=&quot;font-size: 14px; white-space: pre;&quot;&gt;IObserver&lt;/span&gt;&lt;span style=&quot;font-size: 14px; white-space: pre;&quot;&gt;&amp;lt;&lt;/span&gt;&lt;span style=&quot;font-size: 14px; white-space: pre;&quot;&gt;T&lt;/span&gt;&lt;span style=&quot;font-size: 14px; white-space: pre;&quot;&gt;&amp;gt;)&lt;/span&gt;&lt;span style=&quot;font-size: 14px; white-space: pre;&quot;&gt;:&lt;/span&gt;&lt;span style=&quot;font-size: 14px; white-space: pre;&quot;&gt; &lt;/span&gt;&lt;span style=&quot;font-size: 14px; white-space: pre;&quot;&gt;void&lt;/span&gt;&lt;/font&gt;" style="text;strokeColor=none;fillColor=none;align=left;verticalAlign=top;spacingLeft=4;spacingRight=4;overflow=hidden;rotatable=0;points=[[0,0.5],[1,0.5]];portConstraint=eastwest;whiteSpace=wrap;html=1;fontFamily=Helvetica;" vertex="1" parent="B1eMzNVtzVXtAmoFmtZy-1">
          <mxGeometry y="39" width="339" height="26" as="geometry" />
        </mxCell>
        <mxCell id="B1eMzNVtzVXtAmoFmtZy-3" value="+&amp;nbsp;&lt;span style=&quot;font-size: 14px; white-space: pre;&quot;&gt;removeObserver&lt;/span&gt;&lt;span style=&quot;font-size: 14px; white-space: pre;&quot;&gt;(&lt;/span&gt;&lt;span style=&quot;font-size: 14px; white-space: pre;&quot;&gt;observer&lt;/span&gt;&lt;span style=&quot;font-size: 14px; white-space: pre;&quot;&gt;:&lt;/span&gt;&lt;span style=&quot;font-size: 14px; white-space: pre;&quot;&gt; &lt;/span&gt;&lt;span style=&quot;font-size: 14px; white-space: pre;&quot;&gt;IObserver&lt;/span&gt;&lt;span style=&quot;font-size: 14px; white-space: pre;&quot;&gt;&amp;lt;&lt;/span&gt;&lt;span style=&quot;font-size: 14px; white-space: pre;&quot;&gt;T&lt;/span&gt;&lt;span style=&quot;font-size: 14px; white-space: pre;&quot;&gt;&amp;gt;)&lt;/span&gt;&lt;span style=&quot;font-size: 14px; white-space: pre;&quot;&gt;:&lt;/span&gt;&lt;span style=&quot;font-size: 14px; white-space: pre;&quot;&gt; &lt;/span&gt;&lt;span style=&quot;font-size: 14px; white-space: pre;&quot;&gt;void&lt;/span&gt;" style="text;strokeColor=none;fillColor=none;align=left;verticalAlign=top;spacingLeft=4;spacingRight=4;overflow=hidden;rotatable=0;points=[[0,0.5],[1,0.5]];portConstraint=eastwest;whiteSpace=wrap;html=1;fontColor=#000000;labelBackgroundColor=#FFFFFF;fontFamily=Helvetica;" vertex="1" parent="B1eMzNVtzVXtAmoFmtZy-1">
          <mxGeometry y="65" width="339" height="26" as="geometry" />
        </mxCell>
        <mxCell id="B1eMzNVtzVXtAmoFmtZy-4" value="+&amp;nbsp;&lt;span style=&quot;font-size: 14px; white-space: pre;&quot;&gt;notifyObservers&lt;/span&gt;&lt;span style=&quot;font-size: 14px; white-space: pre;&quot;&gt;()&lt;/span&gt;&lt;span style=&quot;font-size: 14px; white-space: pre;&quot;&gt;:&lt;/span&gt;&lt;span style=&quot;font-size: 14px; white-space: pre;&quot;&gt; &lt;/span&gt;&lt;span style=&quot;font-size: 14px; white-space: pre;&quot;&gt;void&lt;/span&gt;" style="text;strokeColor=none;fillColor=none;align=left;verticalAlign=top;spacingLeft=4;spacingRight=4;overflow=hidden;rotatable=0;points=[[0,0.5],[1,0.5]];portConstraint=eastwest;whiteSpace=wrap;html=1;fontColor=#000000;labelBackgroundColor=#FFFFFF;fontFamily=Helvetica;" vertex="1" parent="B1eMzNVtzVXtAmoFmtZy-1">
          <mxGeometry y="91" width="339" height="27" as="geometry" />
        </mxCell>
        <mxCell id="B1eMzNVtzVXtAmoFmtZy-5" value="Observable&amp;lt;T&amp;gt;" style="swimlane;fontStyle=0;childLayout=stackLayout;horizontal=1;startSize=26;fillColor=none;horizontalStack=0;resizeParent=1;resizeParentMax=0;resizeLast=0;collapsible=1;marginBottom=0;whiteSpace=wrap;html=1;" vertex="1" parent="1">
          <mxGeometry x="140" y="352" width="341" height="36" as="geometry" />
        </mxCell>
        <mxCell id="B1eMzNVtzVXtAmoFmtZy-6" value="" style="endArrow=block;dashed=1;endFill=0;endSize=12;html=1;rounded=0;fontSize=12;curved=1;" edge="1" parent="1" source="B1eMzNVtzVXtAmoFmtZy-5" target="B1eMzNVtzVXtAmoFmtZy-1">
          <mxGeometry width="160" relative="1" as="geometry">
            <mxPoint x="293" y="313" as="sourcePoint" />
            <mxPoint x="453" y="313" as="targetPoint" />
          </mxGeometry>
        </mxCell>
        <mxCell id="B1eMzNVtzVXtAmoFmtZy-7" value="WeatherData" style="swimlane;fontStyle=0;childLayout=stackLayout;horizontal=1;startSize=26;fillColor=none;horizontalStack=0;resizeParent=1;resizeParentMax=0;resizeLast=0;collapsible=1;marginBottom=0;whiteSpace=wrap;html=1;" vertex="1" parent="1">
          <mxGeometry x="140" y="475" width="342" height="36" as="geometry" />
        </mxCell>
        <mxCell id="B1eMzNVtzVXtAmoFmtZy-8" value="Extends" style="endArrow=block;endSize=16;endFill=0;html=1;rounded=0;fontSize=12;curved=1;exitX=0.5;exitY=0;exitDx=0;exitDy=0;" edge="1" parent="1" source="B1eMzNVtzVXtAmoFmtZy-7" target="B1eMzNVtzVXtAmoFmtZy-5">
          <mxGeometry width="160" relative="1" as="geometry">
            <mxPoint x="407" y="279" as="sourcePoint" />
            <mxPoint x="567" y="279" as="targetPoint" />
          </mxGeometry>
        </mxCell>
        <mxCell id="B1eMzNVtzVXtAmoFmtZy-9" value="&lt;i&gt;&amp;lt;&amp;lt;Interface&amp;gt;&amp;gt;&lt;/i&gt;&lt;br&gt;&lt;b&gt;IObserver&amp;lt;T&amp;gt;&lt;/b&gt;" style="swimlane;fontStyle=0;childLayout=stackLayout;horizontal=1;startSize=38;fillColor=none;horizontalStack=0;resizeParent=1;resizeParentMax=0;resizeLast=0;collapsible=1;marginBottom=0;whiteSpace=wrap;html=1;" vertex="1" parent="1">
          <mxGeometry x="696" y="182" width="261" height="64" as="geometry" />
        </mxCell>
        <mxCell id="B1eMzNVtzVXtAmoFmtZy-10" value="&lt;font style=&quot;color: rgb(0, 0, 0); background-color: rgb(255, 255, 255);&quot;&gt;+&amp;nbsp;&lt;span style=&quot;font-size: 14px; white-space: pre;&quot;&gt;update&lt;/span&gt;&lt;span style=&quot;font-size: 14px; white-space: pre;&quot;&gt;(&lt;/span&gt;&lt;span style=&quot;font-size: 14px; white-space: pre;&quot;&gt;data&lt;/span&gt;&lt;span style=&quot;font-size: 14px; white-space: pre;&quot;&gt;:&lt;/span&gt;&lt;span style=&quot;font-size: 14px; white-space: pre;&quot;&gt; &lt;/span&gt;&lt;span style=&quot;font-size: 14px; white-space: pre;&quot;&gt;T&lt;/span&gt;&lt;span style=&quot;font-size: 14px; white-space: pre;&quot;&gt;)&lt;/span&gt;&lt;span style=&quot;font-size: 14px; white-space: pre;&quot;&gt;:&lt;/span&gt;&lt;span style=&quot;font-size: 14px; white-space: pre;&quot;&gt; &lt;/span&gt;&lt;span style=&quot;font-size: 14px; white-space: pre;&quot;&gt;void&lt;/span&gt;&lt;/font&gt;" style="text;strokeColor=none;fillColor=none;align=left;verticalAlign=top;spacingLeft=4;spacingRight=4;overflow=hidden;rotatable=0;points=[[0,0.5],[1,0.5]];portConstraint=eastwest;whiteSpace=wrap;html=1;fontFamily=Helvetica;" vertex="1" parent="B1eMzNVtzVXtAmoFmtZy-9">
          <mxGeometry y="38" width="261" height="26" as="geometry" />
        </mxCell>
        <mxCell id="B1eMzNVtzVXtAmoFmtZy-11" value="Display" style="swimlane;fontStyle=0;childLayout=stackLayout;horizontal=1;startSize=26;fillColor=none;horizontalStack=0;resizeParent=1;resizeParentMax=0;resizeLast=0;collapsible=1;marginBottom=0;whiteSpace=wrap;html=1;" vertex="1" parent="1">
          <mxGeometry x="541" y="352" width="261" height="52" as="geometry" />
        </mxCell>
        <mxCell id="B1eMzNVtzVXtAmoFmtZy-12" value="&lt;font style=&quot;color: rgb(0, 0, 0); background-color: rgb(255, 255, 255);&quot;&gt;+&amp;nbsp;&lt;span style=&quot;font-size: 14px; white-space: pre;&quot;&gt;update&lt;/span&gt;&lt;span style=&quot;font-size: 14px; white-space: pre;&quot;&gt;(&lt;/span&gt;&lt;span style=&quot;font-size: 14px; white-space: pre;&quot;&gt;data&lt;/span&gt;&lt;span style=&quot;font-size: 14px; white-space: pre;&quot;&gt;:&lt;/span&gt;&lt;span style=&quot;font-size: 14px; white-space: pre;&quot;&gt; WeatherInfo&lt;/span&gt;&lt;span style=&quot;font-size: 14px; white-space: pre;&quot;&gt;)&lt;/span&gt;&lt;span style=&quot;font-size: 14px; white-space: pre;&quot;&gt;:&lt;/span&gt;&lt;span style=&quot;font-size: 14px; white-space: pre;&quot;&gt; &lt;/span&gt;&lt;span style=&quot;font-size: 14px; white-space: pre;&quot;&gt;void&lt;/span&gt;&lt;/font&gt;" style="text;strokeColor=none;fillColor=none;align=left;verticalAlign=top;spacingLeft=4;spacingRight=4;overflow=hidden;rotatable=0;points=[[0,0.5],[1,0.5]];portConstraint=eastwest;whiteSpace=wrap;html=1;fontFamily=Helvetica;" vertex="1" parent="B1eMzNVtzVXtAmoFmtZy-11">
          <mxGeometry y="26" width="261" height="26" as="geometry" />
        </mxCell>
        <mxCell id="B1eMzNVtzVXtAmoFmtZy-13" value="" style="endArrow=block;dashed=1;endFill=0;endSize=12;html=1;rounded=0;fontSize=12;curved=1;" edge="1" parent="1" source="B1eMzNVtzVXtAmoFmtZy-11" target="B1eMzNVtzVXtAmoFmtZy-9">
          <mxGeometry width="160" relative="1" as="geometry">
            <mxPoint x="320" y="362" as="sourcePoint" />
            <mxPoint x="320" y="283" as="targetPoint" />
          </mxGeometry>
        </mxCell>
        <mxCell id="B1eMzNVtzVXtAmoFmtZy-14" value="&lt;div&gt;&lt;br&gt;&lt;/div&gt;&lt;div&gt;&lt;br&gt;&lt;/div&gt;" style="endArrow=open;html=1;endSize=12;startArrow=diamondThin;startSize=14;startFill=0;align=left;verticalAlign=bottom;rounded=0;fontSize=12;" edge="1" parent="1" source="B1eMzNVtzVXtAmoFmtZy-1" target="B1eMzNVtzVXtAmoFmtZy-9">
          <mxGeometry x="-1" y="3" relative="1" as="geometry">
            <mxPoint x="366" y="282" as="sourcePoint" />
            <mxPoint x="526" y="282" as="targetPoint" />
          </mxGeometry>
        </mxCell>
        <mxCell id="B1eMzNVtzVXtAmoFmtZy-15" value="StatisticDisplay" style="swimlane;fontStyle=0;childLayout=stackLayout;horizontal=1;startSize=26;fillColor=none;horizontalStack=0;resizeParent=1;resizeParentMax=0;resizeLast=0;collapsible=1;marginBottom=0;whiteSpace=wrap;html=1;" vertex="1" parent="1">
          <mxGeometry x="850" y="352" width="261" height="52" as="geometry" />
        </mxCell>
        <mxCell id="B1eMzNVtzVXtAmoFmtZy-16" value="&lt;font style=&quot;color: rgb(0, 0, 0); background-color: rgb(255, 255, 255);&quot;&gt;+&amp;nbsp;&lt;span style=&quot;font-size: 14px; white-space: pre;&quot;&gt;update&lt;/span&gt;&lt;span style=&quot;font-size: 14px; white-space: pre;&quot;&gt;(&lt;/span&gt;&lt;span style=&quot;font-size: 14px; white-space: pre;&quot;&gt;data&lt;/span&gt;&lt;span style=&quot;font-size: 14px; white-space: pre;&quot;&gt;:&lt;/span&gt;&lt;span style=&quot;font-size: 14px; white-space: pre;&quot;&gt; WeatherInfo&lt;/span&gt;&lt;span style=&quot;font-size: 14px; white-space: pre;&quot;&gt;)&lt;/span&gt;&lt;span style=&quot;font-size: 14px; white-space: pre;&quot;&gt;:&lt;/span&gt;&lt;span style=&quot;font-size: 14px; white-space: pre;&quot;&gt; &lt;/span&gt;&lt;span style=&quot;font-size: 14px; white-space: pre;&quot;&gt;void&lt;/span&gt;&lt;/font&gt;" style="text;strokeColor=none;fillColor=none;align=left;verticalAlign=top;spacingLeft=4;spacingRight=4;overflow=hidden;rotatable=0;points=[[0,0.5],[1,0.5]];portConstraint=eastwest;whiteSpace=wrap;html=1;fontFamily=Helvetica;" vertex="1" parent="B1eMzNVtzVXtAmoFmtZy-15">
          <mxGeometry y="26" width="261" height="26" as="geometry" />
        </mxCell>
        <mxCell id="B1eMzNVtzVXtAmoFmtZy-17" value="" style="endArrow=block;dashed=1;endFill=0;endSize=12;html=1;rounded=0;fontSize=12;curved=1;" edge="1" parent="1" source="B1eMzNVtzVXtAmoFmtZy-15" target="B1eMzNVtzVXtAmoFmtZy-9">
          <mxGeometry width="160" relative="1" as="geometry">
            <mxPoint x="762" y="367" as="sourcePoint" />
            <mxPoint x="761" y="256" as="targetPoint" />
          </mxGeometry>
        </mxCell>
        <mxCell id="B1eMzNVtzVXtAmoFmtZy-18" value="IndoorWeatherData" style="swimlane;fontStyle=0;childLayout=stackLayout;horizontal=1;startSize=26;fillColor=none;horizontalStack=0;resizeParent=1;resizeParentMax=0;resizeLast=0;collapsible=1;marginBottom=0;whiteSpace=wrap;html=1;" vertex="1" parent="1">
          <mxGeometry x="82" y="577" width="196" height="36" as="geometry" />
        </mxCell>
        <mxCell id="B1eMzNVtzVXtAmoFmtZy-19" value="OutdoorWeatherData" style="swimlane;fontStyle=0;childLayout=stackLayout;horizontal=1;startSize=26;fillColor=none;horizontalStack=0;resizeParent=1;resizeParentMax=0;resizeLast=0;collapsible=1;marginBottom=0;whiteSpace=wrap;html=1;" vertex="1" parent="1">
          <mxGeometry x="334" y="577" width="201" height="36" as="geometry" />
        </mxCell>
        <mxCell id="B1eMzNVtzVXtAmoFmtZy-20" value="Extends" style="endArrow=block;endSize=16;endFill=0;html=1;rounded=0;fontSize=12;curved=1;" edge="1" parent="1" source="B1eMzNVtzVXtAmoFmtZy-18" target="B1eMzNVtzVXtAmoFmtZy-7">
          <mxGeometry width="160" relative="1" as="geometry">
            <mxPoint x="321" y="485" as="sourcePoint" />
            <mxPoint x="321" y="398" as="targetPoint" />
          </mxGeometry>
        </mxCell>
        <mxCell id="B1eMzNVtzVXtAmoFmtZy-21" value="Extends" style="endArrow=block;endSize=16;endFill=0;html=1;rounded=0;fontSize=12;curved=1;" edge="1" parent="1" source="B1eMzNVtzVXtAmoFmtZy-19" target="B1eMzNVtzVXtAmoFmtZy-7">
          <mxGeometry width="160" relative="1" as="geometry">
            <mxPoint x="156" y="594" as="sourcePoint" />
            <mxPoint x="288" y="521" as="targetPoint" />
          </mxGeometry>
        </mxCell>
        <mxCell id="B1eMzNVtzVXtAmoFmtZy-22" value="AnimalObserver" style="swimlane;fontStyle=0;childLayout=stackLayout;horizontal=1;startSize=26;fillColor=#d5e8d4;horizontalStack=0;resizeParent=1;resizeParentMax=0;resizeLast=0;collapsible=1;marginBottom=0;whiteSpace=wrap;html=1;strokeColor=#82b366;" vertex="1" parent="1">
          <mxGeometry x="696" y="475" width="261" height="52" as="geometry" />
        </mxCell>
        <mxCell id="B1eMzNVtzVXtAmoFmtZy-23" value="&lt;font style=&quot;color: rgb(0, 0, 0); background-color: rgb(255, 255, 255);&quot;&gt;+&amp;nbsp;&lt;span style=&quot;font-size: 14px; white-space: pre;&quot;&gt;update&lt;/span&gt;&lt;span style=&quot;font-size: 14px; white-space: pre;&quot;&gt;(&lt;/span&gt;&lt;span style=&quot;font-size: 14px; white-space: pre;&quot;&gt;data&lt;/span&gt;&lt;span style=&quot;font-size: 14px; white-space: pre;&quot;&gt;:&lt;/span&gt;&lt;span style=&quot;font-size: 14px; white-space: pre;&quot;&gt; WeatherInfo&lt;/span&gt;&lt;span style=&quot;font-size: 14px; white-space: pre;&quot;&gt;)&lt;/span&gt;&lt;span style=&quot;font-size: 14px; white-space: pre;&quot;&gt;:&lt;/span&gt;&lt;span style=&quot;font-size: 14px; white-space: pre;&quot;&gt; &lt;/span&gt;&lt;span style=&quot;font-size: 14px; white-space: pre;&quot;&gt;void&lt;/span&gt;&lt;/font&gt;" style="text;strokeColor=none;fillColor=none;align=left;verticalAlign=top;spacingLeft=4;spacingRight=4;overflow=hidden;rotatable=0;points=[[0,0.5],[1,0.5]];portConstraint=eastwest;whiteSpace=wrap;html=1;fontFamily=Helvetica;" vertex="1" parent="B1eMzNVtzVXtAmoFmtZy-22">
          <mxGeometry y="26" width="261" height="26" as="geometry" />
        </mxCell>
        <mxCell id="B1eMzNVtzVXtAmoFmtZy-24" value="" style="endArrow=block;dashed=1;endFill=0;endSize=12;html=1;rounded=0;fontSize=12;curved=1;" edge="1" parent="1" source="B1eMzNVtzVXtAmoFmtZy-22" target="B1eMzNVtzVXtAmoFmtZy-9">
          <mxGeometry width="160" relative="1" as="geometry">
            <mxPoint x="950" y="362" as="sourcePoint" />
            <mxPoint x="863" y="256" as="targetPoint" />
          </mxGeometry>
        </mxCell>
        <mxCell id="B1eMzNVtzVXtAmoFmtZy-25" value="AnimalData" style="swimlane;fontStyle=0;childLayout=stackLayout;horizontal=1;startSize=26;fillColor=#d5e8d4;horizontalStack=0;resizeParent=1;resizeParentMax=0;resizeLast=0;collapsible=1;marginBottom=0;whiteSpace=wrap;html=1;strokeColor=#82b366;" vertex="1" parent="1">
          <mxGeometry x="-230" y="483" width="342" height="36" as="geometry" />
        </mxCell>
        <mxCell id="B1eMzNVtzVXtAmoFmtZy-26" value="Extends" style="endArrow=block;endSize=16;endFill=0;html=1;rounded=0;fontSize=12;curved=1;" edge="1" parent="1" source="B1eMzNVtzVXtAmoFmtZy-25" target="B1eMzNVtzVXtAmoFmtZy-5">
          <mxGeometry width="160" relative="1" as="geometry">
            <mxPoint x="321" y="485" as="sourcePoint" />
            <mxPoint x="321" y="398" as="targetPoint" />
          </mxGeometry>
        </mxCell>
      </root>
    </mxGraphModel>
  </diagram>
</mxfile>
